<?xml version="1.0" encoding="utf-8"?>
<!-- Generator: Adobe Illustrator 21.0.0, SVG Export Plug-In . SVG Version: 6.00 Build 0)  -->
<svg version="1.1" id="Capa_1" xmlns="http://www.w3.org/2000/svg" xmlns:xlink="http://www.w3.org/1999/xlink" x="0px" y="0px"
	 viewBox="0 0 512 512" style="enable-background:new 0 0 512 512;" xml:space="preserve">
<style type="text/css">
	.st0{fill:#FF0000;}
</style>
<g>
	<path class="st0" d="M166.5,113.2c-4.6-1.3-9.4,1.4-10.7,6c-2.6,9.2-3.9,18.8-3.9,28.4c0,4.8,3.9,8.7,8.7,8.7
		c4.8,0,8.7-3.9,8.7-8.7c0-8,1.1-16,3.3-23.7C173.8,119.2,171.1,114.5,166.5,113.2z"/>
	<path class="st0" d="M256,43.4c-36.6,0-71,19.6-89.7,51.2c-2.4,4.1-1.1,9.4,3.1,11.9c1.4,0.8,2.9,1.2,4.4,1.2c3,0,5.9-1.5,7.5-4.3
		c15.6-26.3,44.2-42.7,74.7-42.7c4.8,0,8.7-3.9,8.7-8.7S260.8,43.4,256,43.4z"/>
	<path class="st0" d="M481.6,138.9h-43.4c-4.8,0-8.7,3.9-8.7,8.7s3.9,8.7,8.7,8.7h43.4c4.8,0,8.7-3.9,8.7-8.7
		S486.4,138.9,481.6,138.9z"/>
	<path class="st0" d="M445.2,12.2c-2.9-3.8-8.3-4.6-12.1-1.7l-34.7,26c-3.8,2.9-4.6,8.3-1.7,12.1c1.7,2.3,4.3,3.5,7,3.5
		c1.8,0,3.6-0.6,5.2-1.7l34.7-26C447.3,21.4,448,16,445.2,12.2z"/>
	<path class="st0" d="M73.8,138.9H30.4c-4.8,0-8.7,3.9-8.7,8.7s3.9,8.7,8.7,8.7h43.4c4.8,0,8.7-3.9,8.7-8.7S78.6,138.9,73.8,138.9z"
		/>
	<path class="st0" d="M115.5,48.4c2.8-3.6,2-9.1-1.8-11.9L79,10.4c-3.8-2.9-9.3-2.1-12.1,1.7c-2.9,3.8-2.1,9.3,1.7,12.1l34.7,26
		c1.6,1.2,3.4,1.7,5.2,1.7C111.1,51.9,113.7,50.7,115.5,48.4z"/>
	<path class="st0" d="M356.5,38.4C324.1,9.4,282.4-3.9,238.8,1c-69,7.6-124.8,63.3-132.5,132.4c-5.5,49.2,13.3,98,50.4,130.5
		c17.5,15.3,27.5,36.9,27.5,59.4v23.9h-6.3c-4.8,0-8.7,3.9-8.7,8.7v43.4c0,16.1,11.1,29.7,26,33.6v18.5v26c0,0.2,0,0.4,0,0.5
		c0,0.1,0,0.1,0,0.2c0.1,0.7,0.2,1.3,0.4,1.9l8.7,26c1.2,3.5,4.5,5.9,8.2,5.9h86.8c3.7,0,7-2.4,8.2-5.9l8.7-26c0,0,0,0,0-0.1
		c0.2-0.6,0.3-1.2,0.4-1.9c0-0.1,0-0.3,0-0.4c0-0.1,0-0.3,0-0.4v-26v-18.4c15-3.9,26-17.5,26-33.6v-43.4c0-4.8-3.9-8.7-8.7-8.7h-6.3
		v-23.9c0-22.4,10-44.1,27.4-59.3c32.7-28.6,51.4-69.9,51.4-113.2C406.7,107.9,388.4,67,356.5,38.4z M293.1,494.6h-74.3L216,486h80
		L293.1,494.6z M299.4,468.6h-86.8v-8.7h86.8V468.6z M299.4,442.6h-86.8v-8.7h86.8V442.6z M343.8,250.8
		c-21.2,18.6-33.4,44.9-33.4,72.4v23.9h-67.1c-4.9,0-8.9,4-8.9,8.9c0,0.2,0,0.5,0,0.7c0,0.5,0.1,0.9,0.2,1.4
		c0.1,0.2,0.1,0.4,0.2,0.7c0.1,0.4,0.3,0.7,0.4,1.1c0.1,0.2,0.2,0.4,0.3,0.5c0.5,0.9,1.1,1.6,1.9,2.3c0.1,0,0.1,0.1,0.2,0.1
		c0.8,0.7,1.8,1.2,2.8,1.6h85v34.7c0,9.6-7.8,17.4-17.3,17.4H203.9c-9.6,0-17.4-7.8-17.4-17.4v-34.7H211c1-0.4,2-0.9,2.8-1.6
		c0.1,0,0.1-0.1,0.2-0.1c0.7-0.7,1.4-1.4,1.9-2.3c0.1-0.2,0.2-0.4,0.3-0.5c0.2-0.3,0.3-0.7,0.4-1.1c0.1-0.2,0.1-0.4,0.2-0.7
		c0.1-0.5,0.2-0.9,0.2-1.4c0-0.2,0-0.5,0-0.7c0-4.9-4-8.9-8.9-8.9H208h-6.4v-23.9c0-27.4-12.2-53.8-33.4-72.4
		c-33.3-29.2-49.6-71.3-44.6-115.5C130.4,74.2,179.7,25,240.7,18.2c38.5-4.3,75.5,7.5,104.2,33.1c28.2,25.3,44.4,61.5,44.4,99.4
		C389.3,189,372.7,225.5,343.8,250.8z"/>
</g>
</svg>
