<?xml version="1.0" encoding="utf-8"?>
<!-- Generator: Adobe Illustrator 21.0.0, SVG Export Plug-In . SVG Version: 6.00 Build 0)  -->
<svg version="1.1" id="Capa_1" xmlns="http://www.w3.org/2000/svg" xmlns:xlink="http://www.w3.org/1999/xlink" x="0px" y="0px"
	 viewBox="0 0 512 512" style="enable-background:new 0 0 512 512;" xml:space="preserve">
<style type="text/css">
	.st0{fill:#FF0000;}
</style>
<path class="st0" d="M487.6,24.4c-32.5-32.5-85.4-32.5-118,0l-163.9,164c-2.2,1.7-3.6,4.3-3.6,7.2c0,5.1,4.2,9.2,9.4,9.2
	c2.9,0,5.5-1.3,7.3-3.4l105-105l91.7,91.7L159,444.7l3.3-29.5l207.4-207.4c3.6-3.6,3.6-9.5,0-13.1s-9.5-3.6-13.1,0L149.2,402.1
	L105,407l4.9-44.2l207.4-207.4c3.6-3.6,3.6-9.5,0-13.1s-9.5-3.6-13.1,0L96.7,349.7L67.3,353l128.9-128.9c1.8-1.7,3-4.1,3-6.8
	c0-5.1-4.2-9.2-9.3-9.2c-2.4,0-4.6,0.9-6.2,2.4L35.5,358.6c-0.2,0.2-0.3,0.4-0.4,0.5c-0.2,0.2-0.4,0.5-0.5,0.7
	c-0.5,0.7-0.9,1.4-1.2,2.2c-0.1,0.2-0.2,0.5-0.3,0.7c0,0.1-0.1,0.2-0.1,0.3L0.2,500.6c-0.1,0.6-0.2,1.3-0.2,1.9c0,0.1,0,0.2,0,0.4
	c0,1.1,0.2,2.1,0.6,3.1c0.1,0.2,0.2,0.4,0.3,0.7c0.5,1,1,1.9,1.8,2.7c0.9,0.9,1.9,1.6,3,2c1.1,0.5,2.3,0.7,3.5,0.7
	c0.7,0,1.4-0.1,2.1-0.3L149,479c0.3-0.1,0.5-0.2,0.7-0.3c0.3-0.1,0.6-0.2,0.9-0.4c0.7-0.3,1.3-0.7,1.9-1.1c0.2-0.2,0.5-0.3,0.7-0.5
	c0.1-0.1,0.2-0.1,0.2-0.2l334.2-334.2C520.1,109.8,520.1,56.9,487.6,24.4z M138.4,462.5L39,486.1l7-7c3.6-3.6,3.6-9.5,0-13.1
	s-9.5-3.6-13.1,0l-7,7l23.7-99.4l41-4.6l-5.3,47.5c0,0.4,0.1,0.7,0.1,1c0,0.4-0.1,0.7-0.1,1s0.2,0.6,0.3,0.9c0.1,0.5,0.3,1,0.5,1.5
	c0.2,0.6,0.5,1.1,0.9,1.7c0.3,0.4,0.6,0.8,0.9,1.2c0.4,0.5,0.9,0.9,1.5,1.2c0.4,0.3,0.8,0.6,1.3,0.8c0.6,0.3,1.3,0.5,1.9,0.6
	c0.4,0.1,0.6,0.3,1,0.3c0.3,0,0.7,0.1,1,0.1l0,0l0,0l0,0l0,0c0.3,0,0.7,0,1-0.1l47.5-5.3L138.4,462.5z M428.6,175.1l-91.7-91.7
	L350,70.3l91.7,91.7L428.6,175.1z M454.8,148.9l-91.7-91.7L376.2,44l91.7,91.7L454.8,148.9z M480.5,122.2l-90.7-90.7
	c25.4-19,61.6-17,84.7,6C497.6,60.6,499.5,96.8,480.5,122.2z"/>
</svg>
