<?xml version="1.0" encoding="utf-8"?>
<!-- Generator: Adobe Illustrator 21.0.0, SVG Export Plug-In . SVG Version: 6.00 Build 0)  -->
<svg version="1.1" id="Layer_1" xmlns="http://www.w3.org/2000/svg" xmlns:xlink="http://www.w3.org/1999/xlink" x="0px" y="0px"
	 viewBox="0 0 1280 715.9" style="enable-background:new 0 0 1280 715.9;" xml:space="preserve">
<style type="text/css">
	.st0{fill:#58488F;}
	.st1{fill:#2F428C;}
	.st2{fill:#1EACCF;}
	.st3{fill:#56418B;}
	.st4{fill:#752379;}
	.st5{fill:#53B3B1;}
	.st6{fill:#E3894E;}
	.st7{fill:#6CBCC3;}
	.st8{fill:#69BABA;}
	.st9{fill:#A41D38;}
	.st10{fill:#CD3423;}
	.st11{fill:#44599C;}
	.st12{fill:#C97F37;}
	.st13{fill:#8A843D;}
	.st14{fill:#B1518F;}
	.st15{fill:#5973AF;}
	.st16{fill:#B05186;}
	.st17{fill:#7BBB92;}
	.st18{fill:#238CC1;}
	.st19{fill:#6ABAB2;}
	.st20{fill:#4D3785;}
	.st21{fill:#602F81;}
	.st22{fill:#9EBE32;}
	.st23{fill:#A9224A;}
	.st24{fill:#772068;}
	.st25{fill:#65B075;}
	.st26{fill:#DC5724;}
	.st27{fill:#99496A;}
	.st28{fill:#CF3C5F;}
	.st29{fill:#B87360;}
	.st30{fill:#7A7D90;}
	.st31{fill:#84BB83;}
	.st32{fill:#562571;}
	.st33{fill:#8CB73C;}
	.st34{fill:#A13872;}
	.st35{fill:#AC7D30;}
	.st36{fill:#555196;}
	.st37{fill:#293174;}
	.st38{fill:#C5515A;}
	.st39{fill:#3E267C;}
	.st40{fill:#3B2461;}
	.st41{fill:#53ABA6;}
	.st42{fill:#D3C73F;}
	.st43{fill:#768555;}
	.st44{fill:#67AE55;}
	.st45{fill:#CF447B;}
	.st46{fill:#AFC440;}
	.st47{fill:#59AB64;}
	.st48{fill:#3B337A;}
	.st49{fill:#B4BE47;}
	.st50{fill:#409965;}
	.st51{fill:#4B6DAB;}
	.st52{fill:#7B5C9C;}
	.st53{fill:#8D6DA6;}
	.st54{fill:#76BDAC;}
	.st55{fill:#86C6CD;}
	.st56{fill:#4EB2C1;}
	.st57{fill:#8F5192;}
	.st58{fill:#675287;}
	.st59{fill:#BB2E51;}
	.st60{fill:#CF3C53;}
	.st61{fill:#299E88;}
	.st62{fill:#178BA8;}
	.st63{fill:#31A683;}
	.st64{fill:#45A7C1;}
	.st65{fill:#2DA687;}
	.st66{fill:#C59654;}
	.st67{fill:#D38A40;}
	.st68{fill:#ACD5CE;}
	.st69{fill:#54B19F;}
	.st70{fill:#53AE88;}
	.st71{fill:#B91C2F;}
	.st72{fill:#CB422E;}
	.st73{fill:#93904B;}
	.st74{fill:#E16C39;}
	.st75{fill:#F0B735;}
	.st76{fill:#EAA938;}
	.st77{fill:#F2D374;}
	.st78{fill:#D0789C;}
	.st79{fill:#D54567;}
	.st80{fill:#AD4E8E;}
	.st81{fill:#CF7074;}
	.st82{fill:#4EB1AE;}
	.st83{fill:#5DB295;}
	.st84{fill:#68B58C;}
	.st85{fill:#915B9A;}
	.st86{fill:#AFC02F;}
	.st87{fill:#75B03D;}
	.st88{fill:#CBB024;}
	.st89{fill:#C1C32B;}
	.st90{fill:#DC5A44;}
	.st91{fill:#E78B45;}
	.st92{fill:#C67E76;}
	.st93{fill:#B35D74;}
	.st94{fill:#8D4462;}
	.st95{fill:#8B1C64;}
	.st96{fill:#84B75B;}
	.st97{fill:#9A8963;}
	.st98{fill:#AF2850;}
	.st99{fill:#DAB641;}
	.st100{fill:#E3C245;}
	.st101{fill:#E2725A;}
	.st102{fill:#D0A12F;}
	.st103{fill:#DE5F35;}
	.st104{fill:#A7246B;}
	.st105{fill:#CA6174;}
	.st106{fill:#C55747;}
	.st107{fill:#E47D30;}
	.st108{fill:#57B197;}
	.st109{fill:#1A8FC4;}
	.st110{fill:#36A58E;}
	.st111{fill:#1EA16E;}
	.st112{fill:#86BF94;}
	.st113{fill:#69B58C;}
	.st114{fill:#28A68F;}
	.st115{fill:#E8B255;}
	.st116{fill:#D9AA52;}
	.st117{fill:#2F943C;}
	.st118{fill:#53AC7D;}
	.st119{fill:#E27532;}
	.st120{fill:#DD5633;}
	.st121{fill:#EA9636;}
	.st122{fill:#E1764A;}
	.st123{fill:#D6B834;}
	.st124{fill:#ECA154;}
	.st125{fill:#F0C13A;}
	.st126{fill:#F5ECA3;}
	.st127{fill:#8E428A;}
	.st128{fill:#957385;}
	.st129{fill:#896C8B;}
	.st130{fill:#8E2F80;}
	.st131{fill:#8F428A;}
	.st132{fill:#D16164;}
	.st133{fill:#7A5295;}
	.st134{fill:#33ACB1;}
	.st135{fill:#60B07C;}
	.st136{fill:#7A4B90;}
	.st137{fill:#BC4649;}
	.st138{fill:#BEC12C;}
	.st139{fill:#D9C624;}
	.st140{fill:#E4D92B;}
	.st141{fill:#D4D232;}
	.st142{fill:#EEAD40;}
	.st143{fill:#D9713A;}
	.st144{fill:#73A183;}
	.st145{fill:#E89E2A;}
	.st146{fill:#EEAC50;}
	.st147{fill:#EEAB4F;}
	.st148{fill:#D9402E;}
	.st149{fill:#E16F38;}
	.st150{fill:#DA4738;}
	.st151{fill:#D16E1E;}
	.st152{fill:#E3D82B;}
	.st153{fill:#E9913E;}
	.st154{fill:#E08837;}
	.st155{fill:#E7893F;}
	.st156{fill:#568FA3;}
	.st157{fill:#5CB399;}
	.st158{fill:#7FB97D;}
	.st159{fill:#3381BB;}
	.st160{fill:#3AA77D;}
	.st161{fill:#4B6C84;}
	.st162{fill:#2471A5;}
	.st163{fill:#4E78B3;}
	.st164{fill:#E1973B;}
	.st165{fill:#D1AC48;}
	.st166{fill:#9E8E5E;}
	.st167{fill:#E06830;}
	.st168{fill:#F0B62C;}
	.st169{fill:#466AA2;}
	.st170{fill:#92BB59;}
	.st171{fill:#2E94AE;}
	.st172{fill:#D9C724;}
	.st173{fill:#5FA38A;}
	.st174{fill:#338D92;}
	.st175{fill:#367F9E;}
</style>
<g id="XMLID_375_">
	<path id="XMLID_967_" class="st0" d="M1217.5,720.1c-22.3,0-44.6,0-66.9,0c-4.3-1.6-6.4-5.5-9.2-8.7c-3.3-3.9-7-7-11.8-8.8
		c-5.2-1.9-10.1-4.5-15.2-6.6c-2.9-1.2-4.7-3.2-5.8-6.1c-10-27-20.1-54.1-30.1-81.1c-5.7-15.3-11.4-30.6-17.1-45.9
		c-0.5-1.5-1.1-2.9-1.1-4.5c0.1-0.8,0.4-1.4,1.1-1.9c6.3-1.3,12.6-0.9,19-0.5c1.1,0.1,2.3,0.3,3.4,0.3c22.5-0.4,45,0.5,67.4,0.8
		c16.6,0.2,33.3,0,49.9,0.7c12.9,0.5,25.8-0.2,38.7,0.6c8.4,0.5,16.8,0,25.2,0.9c0.4,0,0.8,0.1,1.1,0.2c0.3,0.1,0.6,0.4,0.8,0.7
		c0.7,1.5,0.1,2.8-0.3,4.2c-9.2,29.6-18.3,59.2-27.5,88.8c-6.5,21-13,42.1-19.5,63.2C1219.4,717.8,1218.8,719.2,1217.5,720.1z"/>
	<path id="XMLID_966_" class="st1" d="M1061.2,558.9c6.9,18.6,13.8,37.2,20.8,55.8c7.7,20.6,15.4,41.3,23.1,61.9
		c1.8,4.8,3.6,9.5,5.3,14.3c0.5,1.5,1.3,2.6,2.7,3.2c7.1,3,14.1,6.1,21.2,9.1c1.4,0.6,2.6,1.3,3.6,2.4c4.3,4.8,8.6,9.6,12.8,14.4
		c-22.5,0-45,0-67.5,0c-0.5-1.7,0.9-2.4,1.8-3.3c7.1-7.1,14.6-13.8,21.9-20.9c-27.5,6.7-54.9,13.3-82.3,20c-7,1.7-14.1,3.3-21.3,4.2
		c-15.2,0-30.4,0-45.6,0c-0.8-1.7,0.3-3,1-4.3c5.2-8.6,10.7-17.1,16.2-25.6c8.2-12.8,16.3-25.6,24.5-38.4c7-10.9,14-21.9,20.9-32.9
		c8.1-12.7,16.2-25.4,24.3-38.1c4.2-6.6,8.2-13.3,12.7-19.7C1058.1,559.8,1058.8,557.7,1061.2,558.9z"/>
	<path id="XMLID_965_" class="st2" d="M841.9,0.3c22.9,0,45.8,0,68.7,0c1.8,0.7,3.6,1.5,5.1,2.8c18.6,15.2,37.4,30.3,56.1,45.5
		c1.3,1,2.8,1.9,2.8,3.9c-0.8,1.6-2.4,2-3.8,2.5c-27.2,11.6-54.3,23.4-81.5,35c-2,0.9-4,1.7-6.2,1.9c-5.4-0.1-10.7-0.8-16.1-1.3
		c-6.1-0.5-12.2-1.1-18.3-1.6c-7.8-0.7-15.7-1.6-23.5-2.3c-4.7-0.5-9.5-0.9-14.2-1.2c-6.6-0.5-13.2-1.3-19.8-1.9
		c-1,0.1-1.8-0.2-2.4-1c-0.2-0.3-0.3-0.6-0.4-0.9c0-1.3,0.8-2.3,1.5-3.4c16-24.8,32.2-49.4,48.2-74.1C839.1,2.7,840.1,1.1,841.9,0.3
		z"/>
	<path id="XMLID_964_" class="st3" d="M1061.2,558.9c-3.6,1.5-4.6,5.2-6.6,8c-4.4,6.3-8.3,12.9-12.3,19.4c-5,8-10.1,15.9-15.1,23.9
		c-5.2,8.2-10.6,16.4-15.8,24.6c-5.2,8.1-10.2,16.3-15.4,24.4c-3.8,6-7.6,11.9-11.4,17.8c-5.2,8.2-10.4,16.4-15.7,24.6
		c-3.9,6.1-8.1,12-11.4,18.5c-2.5,0-5,0-7.5,0c-2-1.9-1.4-4.3-1.2-6.5c0.8-6.7,1-13.5,1.7-20.2c0.9-9.7,1.5-19.4,2.4-29.2
		c0.5-6.3,0.9-12.6,1.5-18.9c0.8-9.7,1.4-19.5,2.3-29.2c0.5-6,0.9-12,1.4-18c0.8-9.8,1.5-19.7,2.3-29.5c0.5-6.3,0.9-12.6,1.5-18.9
		c0.7-7.6,0.5-15.4,2.5-22.8c1.3-1.8,2.9-1.1,4.5-0.6c4.7,1.4,9.3,3,13.9,4.6c8.1,2.7,16.2,5.2,24.3,7.8c7.8,2.5,15.6,5,23.4,7.5
		c10,3.2,20.1,5.8,29.8,10c0.3,0.1,0.6,0.3,0.8,0.6c0.1,0.2,0.1,0.3,0.2,0.5C1061.2,557.8,1061.2,558.3,1061.2,558.9z"/>
	<path id="XMLID_963_" class="st4" d="M965.1,526.7c-1,12.4-2.1,24.8-3.1,37.2c-0.7,9.1-1.3,18.2-2,27.3c-0.7,9.2-1.6,18.4-2.4,27.6
		c-0.5,6.1-0.9,12.2-1.3,18.3c-0.8,9.9-1.6,19.8-2.4,29.7c-0.5,6-0.9,12-1.3,18c-0.8,9.8-1.6,19.6-2.4,29.4c-0.2,2-0.1,4-0.1,5.9
		c-4.4,0-8.7,0-13.1,0c-3.1-1.2-5.2-3.8-7.3-6.1c-8.5-9.4-17.4-18.5-26-27.8c-12-12.9-24.2-25.5-36-38.5c-2.9-3.1-6.4-5.7-8.6-9.4
		c-0.1-0.5-0.1-0.9,0-1.4c0.7-1.3,1.7-2.4,2.7-3.4c10-10,19.5-20.4,29.3-30.7c12.4-13,24.8-26,37.2-39.1
		c11.5-12.1,22.9-24.4,34.6-36.4c0.4-0.4,0.8-0.7,1.2-1c0.2-0.2,0.5-0.3,0.8-0.3C964.9,526.2,965.1,526.4,965.1,526.7z"/>
	<path id="XMLID_962_" class="st5" d="M317.7,720.1c-22.7,0-45.4,0-68.1,0c-1.1-0.9-1.7-2-2.1-3.3c-4-12.2-8.1-24.4-12.2-36.6
		c-0.3-1-0.4-2-0.7-3c-0.2-0.6-0.1-1.3,0.3-1.8c0.7-0.5,1.5-0.7,2.1-1.5c29.6-39.9,59.6-79.6,89.4-119.3c0.8-1.1,1.6-2.2,2.9-2.8
		c0.6,0,1,0.2,1.3,0.7c0.1,0.4,0.2,0.7,0.2,1.1c0.8,13.3-0.5,26.6,0.8,39.9c0.1,1.6,0.1,3.1,0.1,4.7c0,10.8,0.1,21.7,0,32.5
		c-0.4,23.5,1,47,0.7,70.5c0,1.8,0.1,3.5-0.3,5.3c-0.1,1.3-0.5,2.5-1.4,3.4C326.3,713.3,323,717.9,317.7,720.1z"/>
	<path id="XMLID_961_" class="st6" d="M167.1,720.1c-50.2,0-100.4,0-150.6,0c-0.8-0.9-0.6-1.9-0.3-3c1.8-6.3,3.8-12.5,5.7-18.8
		c2.8-9.1,5.7-18.2,8.6-27.4c2.7-8.6,5.5-17.2,8.2-25.9c2.6-8.3,5.2-16.7,7.8-25c0.4-1.4,0.7-2.8,1.9-3.8c2-1,3.4,0.4,4.7,1.5
		c16.9,13.2,33.7,26.4,50.6,39.6c19.8,15.5,39.6,31,59.4,46.5c2.8,2.2,5.2,4.7,8.3,6.5c0.8,0.5,1.4,1.2,1.7,2.2
		C172.5,716.2,170.3,718.5,167.1,720.1z"/>
	<path id="XMLID_960_" class="st7" d="M1046.9,0.3c15.6,0,31.2,0,46.9,0c1.1,1.4,0.5,2.8-0.1,4.1c-3.8,9.1-7.6,18.2-11.5,27.3
		c-1,2.3-2.6,3.9-4.8,5.1c-3,1.5-5.8,3.3-8.9,4.5c-9,3.5-15,11.3-23.1,16.2c-15.1,9.2-29.5,19.5-44.9,29c5.7,0.2,10.9-0.5,16.2-0.9
		c7.5-0.5,14.9-1.1,22.4-1.6c7.6-0.5,15.1-1,22.7-1.6c3.1-0.3,5.6,0.4,7,3.4c0.4,1.6,0,3.1-0.4,4.6c-3.7,14.5-7,29.1-10.7,43.6
		c-0.6,2.4-1.5,4.7-2.9,6.9c-10.6,17-21.1,33.9-31.6,50.9c-0.8,1.3-1.7,3.6-3.6,2.7c-1.8-0.9-0.8-3-0.3-4.6
		c3.8-13.3,6.8-26.8,11.1-40c0.3-1,0.7-2,0.5-3c0.2-2-1.2-3.3-2.3-4.6c-12.5-15.2-25.1-30.3-37.6-45.5c-1.4-1.7-3.3-3.2-3.5-5.7
		c0.4-2.2,2.2-3.2,3.9-4.2c19.2-12.4,38.2-25.1,57.4-37.5c0.6-0.4,1.3-0.6,1.8-1.5c-4.5-0.3-8.8,0.4-13,0.8
		c-10.2,0.8-20.5,1.5-30.7,2.4c-9.2,0.8-18.4,1.3-27.6,2.2c-1.4,0.1-2.7,0.3-3.9-0.5c-1.3-2.4,0.9-3.1,2.2-4
		c6-4.4,12.1-8.8,18.2-13.1c15.1-10.7,30.1-21.4,45.2-32.1C1042.8,2.1,1044.8,1.2,1046.9,0.3z"/>
	<path id="XMLID_959_" class="st8" d="M1068.1,85.9c-2-2.2-4.2-2.5-7.2-2.1c-6.3,0.9-12.8,1-19.2,1.5c-11.6,0.8-23.1,1.7-34.7,2.4
		c-3.2,0.2-6.3-0.1-10.2,0.9c2.2-3.1,4.6-4.3,6.8-5.6c10.4-6.4,20.6-13.3,30.8-20.1c5.4-3.7,11.2-6.7,16.4-10.7
		c2.1-1.6,4.3-2.8,5.6-5.3c0.5-1,1.7-1.5,2.7-2.1c6.1-3.1,12.2-6.3,18.3-9.4c1.2-0.6,2.4-1.2,3-2.6c4.5-10.8,9.4-21.5,13.4-32.5
		c19.8,0,39.6,0,59.4,0c12.2,4.4,23.7,10.4,35.5,15.7c1.8,0.8,3.8,1.6,3.2,4.2c-0.6,1.3-1.8,1.9-3,2.6
		c-25.2,13.4-50.4,26.8-75.6,40.1c-13.6,7.2-27.1,14.6-40.8,21.6c-0.9,0.5-1.8,1-2.8,1.3C1069,86,1068.5,86,1068.1,85.9z"/>
	<path id="XMLID_958_" class="st9" d="M859.5,637.1c-0.1,0.3-0.2,0.7-0.3,1c0.1,0.5,0.1,0.9-0.2,1.3c-16.3,21.1-33.3,41.5-50,62.3
		c-3.8,4.8-7.7,9.6-11.5,14.4c-1.2,1.6-2.6,3-4.4,3.9c-1,0-2.1,0-3.1,0c-1.7-1.8-0.8-3.8-0.4-5.6c2.5-12.4,4.9-24.8,7.4-37.2
		c4.6-22.9,9.1-45.8,13.8-68.6c0.3-0.8,0.8-1.5,0.9-2.4c7.9-17.5,16.3-34.8,24.5-52.3c6.5-13.8,13-27.6,19.5-41.5
		c3-6.5,6-13,9.2-19.4c0.6-1.3,1.2-3.5,3.5-1.6c0.8,1.7,0.6,3.5,0.5,5.2c-0.8,8.6-0.8,17.2-1.7,25.7c-0.4,4.4-0.4,8.9-0.6,13.4
		c-0.4,9.1-1,18.2-1.6,27.3c-0.7,12-1.4,24-2.2,36c-0.6,8.9-1.2,17.8-1.5,26.7C861.2,629.6,861.2,633.5,859.5,637.1z"/>
	<path id="XMLID_957_" class="st10" d="M812,608.2c-1.1,8.5-3.1,16.7-4.8,25.1c-5.6,28.3-11.3,56.6-17,84.9
		c-0.1,0.6-0.1,1.2-0.1,1.9c-1.9,0-3.7,0-5.6,0c-1.5-0.8-2.7-1.9-3.7-3.2c-26.2-32.7-52.6-65.4-78.8-98.1c-0.8-1-1.6-1.9-2.2-3
		c-0.8-1.3-1-2.6,0.7-3.4c2.3-0.6,4.7-1,7.1-1c9.9-0.2,19.7-0.9,29.5-1.5c12.6-0.8,25.2-1.2,37.8-2.3c4.3-0.4,8.7-0.3,13-0.6
		c6.8-0.5,13.7-0.8,20.5-1.1C810,605.9,811.7,605.9,812,608.2z"/>
	<path id="XMLID_956_" class="st11" d="M1217.5,720.1c4.6-14.8,9.1-29.6,13.7-44.4c8.4-27.4,16.9-54.8,25.3-82.2
		c3.4-11.1,6.9-22.2,10.4-33.3c2.7-2.8,10.3-5,13.1-3.8c0,53.7,0,107.5,0.1,161.2c0,2.1-0.4,2.6-2.6,2.6
		C1257.4,720.1,1237.5,720.1,1217.5,720.1z"/>
	<path id="XMLID_955_" class="st12" d="M49.1,616.4c-2.6,8.3-5.1,16.6-7.7,24.9c-1.7,5.5-3.6,11-5.3,16.6
		c-2.6,8.4-5.2,16.8-7.8,25.2c-1.2,3.9-2.6,7.7-3.7,11.5c-2.5,8.5-5.4,17-8.1,25.5c-4.8,0-9.6,0-14.4,0c-1.1-0.9-1-2.2-0.9-3.5
		c0.1-4.9-0.3-9.8,0.3-14.6c0.1-0.7,0-1.5,0-2.2c-0.3-14.9,0.4-29.7,0.7-44.6c0.2-8.5-0.1-17.1,0.5-25.5c0.7-8.6,0-17.3,0.6-25.9
		c0.7-8.5,0-17.1,0.6-25.5c0.3-4.3-0.2-8.7,1.3-12.9c0.9-1,1.9-1,3.1-0.7c1,0.3,1.9,0.7,2.9,1.2c20.2,10.3,40.8,19.8,61,30.2
		c1.6,0.8,3.5,1.4,4.4,3.2c0.2,1.2-0.4,2-1.4,2.5c-8.4,4.7-16.5,9.8-25,14.3C49.9,616.2,49.4,616.2,49.1,616.4z"/>
	<path id="XMLID_954_" class="st13" d="M781.3,720.1c-34.2,0-68.3,0-102.5,0c-5.2-0.8-10.5-0.2-15.7-0.5c-5.1-0.3-10.3-0.2-15.5-0.5
		c-0.4,0-0.7-0.1-1-0.3c-0.3-0.2-0.5-0.5-0.6-0.8c1.1-5.7,4.1-10.6,6.4-15.8c8-17.6,15.9-35.2,23.9-52.9c0.8-1.8,1.9-3.5,2.9-5.1
		c0.2-0.3,0.4-0.4,0.7-0.6c2-0.3,3.3,1.1,4.6,2.2c14.6,10.9,29.1,21.9,43.7,32.7c16.7,12.4,33.3,24.9,50,37.4
		C779.6,717,781.8,717.6,781.3,720.1z"/>
	<path id="XMLID_953_" class="st14" d="M788.8,81.7c0,0.2,0,0.3,0.1,0.5c-0.1,0.2-0.3,0.3-0.4,0.5c-1.3,0.9-2.7,0.8-4.2,0.9
		c-11.5,0.1-23-0.5-34.5-1.2c-0.8-0.1-1.7-0.1-2.5-0.1c-10.2,0.4-20.3-1-30.5-0.7c-1.4,0-2.7-0.2-3.9-1c-0.4-0.1-0.7-0.3-1-0.5
		c-2.3-2.8-2.5-6.4-3.3-9.6c-3.3-12.3-6.3-24.6-9.6-36.8c-0.3-1.3-0.7-2.6-0.5-4c-0.1-0.7-0.3-1.4-0.2-2.1
		c0.9-7.3,1.9-14.6,3.1-21.8c0.3-1.9,0.2-4,1.8-5.5c10.4,0,20.8,0,31.2,0c1.6,0.7,2.7,1.8,3.6,3.3C754.4,28.5,771,53.2,787.4,78
		C788.2,79.1,789,80.2,788.8,81.7z"/>
	<path id="XMLID_952_" class="st15" d="M788.8,81.7c-1.4-2-2.9-4-4.3-6.1c-16.7-25.1-33.4-50.2-50-75.3c35.8,0,71.6,0,107.5,0
		c-6.6,10.3-13.3,20.6-20,30.9c-9.9,15.2-19.8,30.5-29.7,45.7C791.2,78.5,790,80.1,788.8,81.7z"/>
	<path id="XMLID_951_" class="st16" d="M0.3,410.2c0-134.5,0-269.1,0-403.6c1.3-0.6,2.2,0.3,3,1.1c5.2,5,10.1,10.4,14.7,16
		c0.1,0.3,0.1,0.7,0.1,1c-0.1,2.7,1.8,5.4,0.3,8.1c-1,1.4-0.9,3-0.9,4.5c-0.1,4.8-0.1,9.6-0.1,14.3c0,8.6-0.6,17.2-0.9,25.9
		c-0.3,11.5-0.8,23-1.3,34.6c-0.4,10.2-0.8,20.3-1.2,30.5c-0.5,11.5-0.9,23-1.3,34.6c-0.4,9.9-0.8,19.7-1.2,29.6
		c-0.4,11.6-0.9,23.3-1.3,34.9c-0.3,9.7-0.8,19.3-1.1,29c-0.4,11.9-0.9,23.9-1.3,35.8c-0.4,10.2-0.8,20.3-1.2,30.5
		c-0.5,11.5-0.9,23-1.3,34.6c-0.4,10.1-1,20.1-1.1,30.2c0,3.3-0.4,6.6-1.2,9.8C0.9,413.5,1,411,0.3,410.2z"/>
	<path id="XMLID_950_" class="st17" d="M442.7,720.1c-32.3,0-64.6,0-96.8,0c-5.5-2.1-9.3-6.6-13.8-10.1c-0.7-0.6-1.1-1.5-0.9-2.5
		c0.3-1.2,1.2-1.9,2.2-2.5c15.9-8.9,32-17.8,48-26.6c0.8-0.4,1.7-0.9,2.6-1c0.3,0,0.7,0,1,0.1c11.6,2.3,23,5.5,34.5,8.4
		c15.7,3.9,31.4,7.8,47.1,11.8c1.7,0.4,3.5,0.6,4.8,2c0.5,0.6,0.3,1.3,0,1.9c-7,5.3-14.5,10-21.8,15.1
		C447.4,718.1,445.2,719.4,442.7,720.1z"/>
	<path id="XMLID_949_" class="st18" d="M1046.9,0.3c-6.6,5.4-13.7,10-20.6,15c-16.8,12-33.7,24-50.5,35.9c-0.3,0.2-0.6,0.6-0.9,0.9
		c-0.1,0.2-0.3,0.3-0.5,0.1c-17.8-14.4-35.6-28.7-53.3-43.1c-3.5-2.9-6.9-5.8-10.4-8.8C956.1,0.3,1001.5,0.3,1046.9,0.3z"/>
	<path id="XMLID_948_" class="st19" d="M1191.2,20.2c0.1-1.5-0.8-2.1-2.1-2.6c-10.4-4.7-20.8-9.4-31.1-14.2c-1.7-0.8-3.8-1.3-5-3.1
		c29,0,57.9,0,86.9,0c1.4,1.1,1.9,2.7,2.4,4.3c1.4,4.2,3.4,8.3,4.1,12.7c0.1,0.7,0.2,1.4,0,2.1c-1.3,6.4-1.8,12.9-2.6,19.4
		c-0.9,7.3-2,14.6-2.9,21.9c-1.5,12-3.2,24.1-4.7,36.1c-0.2,1.7-0.5,3.3-1.1,4.8c-0.9,1.2-1.8,0.7-2.6-0.1c-0.6-0.6-0.9-1.4-1.3-2.1
		c-12.7-25.1-24.8-50.6-37.5-75.7c-0.5-1-0.7-2.2-2-2.7C1191.5,20.8,1191.3,20.5,1191.2,20.2z"/>
	<path id="XMLID_947_" class="st20" d="M858.7,638.8c0.2-0.2,0.3-0.4,0.5-0.6c3.5,2.6,6.4,5.9,9.4,9.1c4.7,4.8,9.1,9.9,13.7,14.8
		c12,12.7,24,25.3,36,37.9c6.3,6.6,12.4,13.4,18.6,20.1c-26.7,0-53.3,0-80,0c-1.1-1-1.4-2.3-1.1-3.7c0.5-2.3,0.4-4.6,0.4-6.8
		c-0.3-14.4,0.7-28.9,0.8-43.3c0.1-7.4,0.3-14.7,0.4-22.1C857.5,642.3,857.9,640.5,858.7,638.8z"/>
	<path id="XMLID_946_" class="st21" d="M200.9,0.3c41.4,0,82.9,0,124.3,0c1.3,0.7,2.3,1.7,3.2,2.9c8.3,12,16.3,24.2,24.4,36.3
		c1,1.4,2.7,2.9,0.9,5c-1.7,0.8-3.3,0.1-4.9-0.3c-23.9-5.9-47.7-12-71.7-17.8c-24.9-6-49.8-12.4-74.7-18.6c-1.3-0.3-2.6-0.6-3.7-1.5
		c-0.3-0.2-0.5-0.5-0.6-0.8C197.6,3,199.1,1.6,200.9,0.3z"/>
	<path id="XMLID_945_" class="st22" d="M1279.9,131.5c0,108.7,0,217.4,0,326.2c-2.7,2.7-5.8,3.8-9.6,2.7c-0.3-0.3-0.5-0.6-0.6-1
		c-0.1-0.6-0.1-1.2-0.1-1.8c-1-104.5-0.1-208.9-0.5-313.4c0-2.7,0.7-5.4,0.2-8.1c-0.4-1.2-0.1-2.3,0.5-3.4c0.2-0.3,0.5-0.6,0.8-0.8
		C1273.7,131,1276.7,129.3,1279.9,131.5z"/>
	<path id="XMLID_944_" class="st23" d="M594.5,0.3c27.7,0,55.4,0,83.1,0c0.5,2.1-1.3,2.9-2.5,3.9c-10.8,8.8-21.7,17.5-32.5,26.3
		c-15.2,12.3-30.4,24.6-45.6,36.9c-1.9,1.6-4,3-6,4.4c-1,0.7-2,1.2-3.1,0.2c-1.4-3.5-0.3-7,0-10.4c0.5-6.2,1-12.4,1.6-18.6
		c0.8-9.3,1.5-18.6,2.4-27.9c0.3-3.6,0.6-7.2,0.8-10.9C592.7,2.6,592.9,1.1,594.5,0.3z"/>
	<path id="XMLID_943_" class="st24" d="M858.7,638.8c0.6,16.5-0.7,33.1-0.7,49.6c0,4.6-0.3,9.3-0.4,14c-0.2,5.9,0.2,11.9-0.7,17.7
		c-21.2,0-42.5,0-63.7,0c4.7-6,9.4-12.1,14.2-18.1c16.7-20.8,33.5-41.5,50.2-62.2C858,639.4,858.4,639.1,858.7,638.8z"/>
	<path id="XMLID_942_" class="st25" d="M1279.9,131.5c-3.1,0.4-6.3,0.8-9.4,1.2c-2.2-2.1-2.3-5-2.9-7.7c-7-33.1-14.3-66.1-21.4-99.2
		c-0.5-2.3-0.2-4.5-0.6-6.8c0-0.6,0-1.2,0-1.8c2.8-2.5,6.4-2,9.7-2.4c6.7-1,13.5-1.6,20.3-2.5c1.6-0.2,3.1-0.2,4.3,1.1
		C1279.9,52.8,1279.9,92.2,1279.9,131.5z"/>
	<path id="XMLID_941_" class="st26" d="M781.3,720.1c-4-4.1-8.8-7.1-13.4-10.5c-29.2-21.9-58.5-43.8-87.8-65.6
		c-0.8-1.3,0.1-2.4,0.7-3.5c4.9-8.6,10.3-16.8,15.4-25.3c0.6-1.1,1.4-2.1,2.9-2.1c0.1,0.1,0.3,0.1,0.4,0.2c2.3,4.4,5.8,7.8,8.8,11.6
		c11.4,14.4,22.9,28.7,34.4,43c9.1,11.3,18.3,22.5,27.4,33.9c4.8,6.1,10,11.9,14.4,18.4C783.4,720.1,782.4,720.1,781.3,720.1z"/>
	<path id="XMLID_940_" class="st27" d="M499.5,0.3c15.4,0,30.8,0,46.2,0c1.4,0.7,2.3,1.7,2.8,3.2c6.2,17.2,12.8,34.3,19.1,51.4
		c0.5,1.4,0.8,2.8,0.5,4.3c-0.1,0.3-0.3,0.6-0.6,0.8c-1.4,0.7-2.7,0-3.8-0.6C540.5,47,517,34.9,493.8,22.5c-1.3-0.7-2.6-1.4-3.4-2.7
		c-0.2-0.5-0.3-0.9-0.2-1.4c1.9-5.1,4.4-10,6.6-15C497.3,2,498.2,1,499.5,0.3z"/>
	<path id="XMLID_939_" class="st28" d="M588.9,72.2c16.8-13.6,33.6-27.1,50.4-40.7c12.4-10,24.8-19.9,37.1-29.8
		c0.5-0.4,0.8-0.9,1.2-1.4c3.5,0,7.1,0,10.6,0c1.3,0.6,1.9,1.7,2.4,3c2.4,6.4,5.1,12.7,7.5,19c0.7,1.8,0.4,3.7,1.2,5.4
		c0,0.6,0,1.2,0,1.9c-1.2,1.7-3,2.1-4.8,2.8c-24.5,9.7-49,19.3-73.5,28.9c-9.3,3.6-18.5,7.6-28,10.7c-0.8,0.3-1.5,0.8-2.2,1.2
		c-0.7,0.2-1.3,0.2-1.9-0.2C588.7,72.8,588.7,72.5,588.9,72.2z"/>
	<path id="XMLID_938_" class="st29" d="M17.2,24.1c-0.1-0.2-0.1-0.4-0.1-0.6c-0.7-1.3-0.8-2.7-0.8-4.2c0.3-5.1,1.1-10.2,1.4-15.3
		c0.1-1.5,0.7-2.8,1.9-3.8c22.1,0,44.2,0,66.2,0c1.4,0.7,2.5,1.8,3.4,3.2c5.7,8.6,11.2,17.3,17,25.8c1,1.4,2.6,3.1,0.4,4.9
		c-3.4,1.1-6.8,0.1-10.2-0.3c-16.8-2-33.6-3.4-50.3-5.3c-8.7-1-17.5-1.6-26.2-2.9c-0.5-0.1-1-0.2-1.5-0.4
		C17.8,25.1,17.5,24.6,17.2,24.1z"/>
	<path id="XMLID_937_" class="st30" d="M107.2,33.4c-1.5-3.2-3.7-5.9-5.6-8.9C96.4,16.4,91.1,8.4,85.9,0.3c34.6,0,69.1,0,103.7,0
		c2.2,0.9,4.5,1.3,6.5,2.6c1,0.6,1.9,1.1,2.2,2.4l0.1,0c0.2,0.3,0.2,0.6,0,0.9c-0.4,0.4-0.8,0.6-1.3,0.7c-7.1,2.5-14.4,4.7-21.6,7
		c-7.6,2.4-15.3,4.7-22.9,7.1c-7.2,2.3-14.4,4.7-21.7,6.7c-7.5,2.1-14.7,5.2-22.4,6.6C108,34.1,107.5,33.8,107.2,33.4z"/>
	<path id="XMLID_936_" class="st31" d="M235.3,676.8c4.7,14,9.4,28,14.1,42c0.1,0.4,0.1,0.8,0.1,1.2c-21.7,0-43.3,0-65,0
		c-3.2-1.1-6.3-2.5-9.1-4.5c-1.1-0.8-2.4-1.4-2.4-3c0-1.7,1.3-2.3,2.5-2.9c19-10.7,37.9-21.5,56.9-32.1c0.6-0.4,1.3-0.7,2-0.8
		C234.7,676.8,235,676.8,235.3,676.8z"/>
	<path id="XMLID_935_" class="st32" d="M353.9,44c-0.9-2.6-2.7-4.6-4.2-6.9c-7.6-11.4-15.3-22.8-22.9-34.1c-0.6-0.9-1.1-1.8-1.6-2.7
		c21.9,0,43.7,0,65.6,0c1.3,1.6,0.8,3.4,0.6,5.1c-0.9,6-1.5,12.1-2.7,18.1c-0.3,1.7-1.7,2.5-3,3.4c-8.9,5.5-18,10.7-27.1,16.1
		c-1.3,0.8-2.6,1.8-4.3,1.4C354.2,44.2,354,44.1,353.9,44z"/>
	<path id="XMLID_934_" class="st33" d="M470.7,701.2c0.3-0.4,0.5-0.7,0.8-1.1c0.2-0.3,0.6-0.6,1-0.7c9.4-0.3,18.8,0.5,28.3,1.1
		c5.2,0.3,10.4,0.4,15.5,0.6c11.6,0.3,23.2,1.1,34.8,1.6c9.2,0.3,18.4,0.4,27.6,1.5c0.4,0,0.7,0.1,1,0.2c0.3,0.2,0.5,0.4,0.7,0.7
		c0.1,0.3,0.2,0.7,0,0.9c-3.6,5-7.1,10.2-12.1,14.1c-32.7,0-65.4,0-98.1,0c-0.8-0.7-1.4-1.7-1.2-2.7
		C469.9,712,468.7,706.5,470.7,701.2z"/>
	<path id="XMLID_933_" class="st34" d="M567.7,59.5c-0.9-5-3.3-9.5-5-14.3c-2.9-8.4-6.2-16.7-9.3-25c-2.5-6.7-5.1-13.3-7.6-19.9
		c13.1,0,26.2,0,39.4,0c1.5,1.8,0.6,3.6,0.1,5.3c-4,14.5-8.4,29-12.5,43.4c-0.7,2.5-1.3,5-2.1,7.5C570.1,57.9,569.8,59.7,567.7,59.5
		z"/>
	<path id="XMLID_932_" class="st35" d="M0.3,410.2c0.6,0.7,0.9,1.6,1.8,2c0.4,0.2,0.6,0.5,0.8,0.9C4,418.6,4,424.3,4,429.8
		c0,14.3,0.7,28.7,0.9,43c0.1,8.4-0.1,16.8,0.6,25.2c0.7,8.4,0,16.8,0.6,25.2c0.7,8.5,0.2,17,0.6,25.5C7,553.8,7.6,558.9,7,564
		c0,0.4-0.2,0.8-0.4,1.1c-0.6,0.6-0.7,1.3-0.7,2c-0.2,5.9-0.6,11.8-0.6,17.7c0,13.3-0.6,26.6-0.9,39.9C4.3,632.9,4.4,641,4,649.1
		c-0.8,17.5-0.9,35.1-1.4,52.7c-0.2,6.1-0.3,12.2-0.4,18.4c-1,0-2.4,0.4-1.9-1.6c0.1-0.4,0-0.8,0-1.2C0.3,614.9,0.3,512.6,0.3,410.2
		z"/>
	<path id="XMLID_931_" class="st36" d="M1270.6,460.1c3.1-0.8,6.2-1.6,9.3-2.5c0,32.9,0,65.8,0,98.7c-4.5,0.7-8.6,3-13.1,3.8l0,0
		c-1.9-2.5-1.3-5.3-1.1-8.1c0.1-1.1,0.4-2.2,0.4-3.4c-0.3-9,0.6-18.1,0.8-27.1c0.3-11.4,0.6-22.8,1.3-34.2
		c0.5-7.8-0.1-15.6,1.1-23.3c0.2-1,0.1-2.1,0.6-3C1270,460.7,1270.3,460.4,1270.6,460.1z"/>
	<path id="XMLID_930_" class="st37" d="M1003.1,720.1c7-2.5,14.4-3.8,21.6-5.6c25.2-6.2,50.4-12.3,75.7-18.4
		c3.1-0.8,6.2-1.4,9.7-1.7c-9,8.5-18,17.1-27.1,25.6C1056.5,720.1,1029.8,720.1,1003.1,720.1z"/>
	<path id="XMLID_929_" class="st38" d="M567.7,59.5c2.5-3,2.6-6.9,3.6-10.4c4.5-15,8.8-30.1,13.1-45.1c0.3-1.2,0.5-2.4,0.7-3.7
		c3.1,0,6.2,0,9.4,0c-1.1,3.3-0.8,6.8-1.1,10.1c-1.1,11.5-1.8,23.1-2.7,34.7c-0.7,8.3-1.6,16.7-2.4,25c-0.1,0.7,0,1.5,0.5,2
		c0,0.2,0,0.4,0,0.6c-0.7,0.7-1.6,0.5-2.3,0.1c-6.4-3.9-13-7.4-18.8-12.1c-0.2-0.3-0.2-0.6-0.1-0.9
		C567.6,59.8,567.6,59.6,567.7,59.5z"/>
	<path id="XMLID_928_" class="st39" d="M387.7,24.1c0.5-8,2-15.9,3.1-23.8c17.1,0,34.2,0,51.2,0c1.1,1.1,0.7,2.5,0.7,3.8
		c-0.1,3.2-0.4,6.3-1.3,9.4c-0.9,1.5-2.4,2-3.9,2.3c-15.3,3-30.5,6.2-45.8,9.1C390.3,25.1,388.8,25.4,387.7,24.1z"/>
	<path id="XMLID_927_" class="st40" d="M440.7,13.3c0.1-4.4,0.4-8.7,1.3-13c14.8,0,29.6,0,44.4,0c0.8,0.5,1.7,1,1.9,2
		c1.1,5.4,3.6,10.6,2.6,16.3c0,0.3-0.1,0.7-0.1,1c-0.1,0.2-0.2,0.3-0.3,0.5c-3,1.8-6.1,0.3-9.1,0c-11.1-1.3-22.2-2.8-33.3-4.1
		c-1.6-0.2-3.1-0.6-4.6-0.8C442.5,14.6,441.3,14.4,440.7,13.3z"/>
	<path id="XMLID_926_" class="st41" d="M1279.9,13.4c-10,0.8-20,2.1-30,3.4c-1.4,0.2-2.9,0.2-4.3,0.4c-1.8-5.7-4.5-11-5.7-16.9
		c12.7,0,25.4,0,38.1,0c1.6,0,2,0.3,1.9,1.9C1279.9,5.9,1279.9,9.7,1279.9,13.4z"/>
	<path id="XMLID_925_" class="st42" d="M580.2,705.7c0-0.2,0-0.4,0-0.6c1.4-1.5,3.2-0.8,4.7-0.5c19.4,3.7,38.6,8.2,58,11.8
		c1.3,0.3,2.6,0.6,3.6,1.7c0.2,0.1,0.3,0.1,0.5,0.2c0.6,0.6,0.5,1.1,0,1.7c-17.7,0-35.4,0-53.1,0c-2.1-0.9-3.7-2.2-5.2-3.9
		c-2.3-2.7-4.6-5.3-7.2-7.8C580.8,707.7,580.1,706.9,580.2,705.7z"/>
	<path id="XMLID_924_" class="st43" d="M19.7,0.3c-0.9,7.7-1.7,15.5-2.6,23.2c-4.8-4.1-8.6-9.1-13-13.5C2.9,8.8,1.9,7.3,0.3,6.6
		c0-2.1-0.8-5,0.2-6s3.9-0.2,6-0.2C10.9,0.3,15.3,0.3,19.7,0.3z"/>
	<path id="XMLID_923_" class="st44" d="M470.7,701.2c1,4.4-0.1,8.7-0.2,13.1c0,1.9-0.4,3.9-0.4,5.8c-9.2,0-18.3,0-27.5,0
		C451.8,713.5,461.1,707.1,470.7,701.2z"/>
	<path id="XMLID_922_" class="st45" d="M699.4,27.8c-3.2-5.6-4.8-11.8-7.4-17.7c-1.4-3.2-2.6-6.5-3.8-9.8c5,0,10,0,15,0
		c-0.3,6.9-1.9,13.6-2.7,20.5C700.2,23.1,699.8,25.5,699.4,27.8z"/>
	<path id="XMLID_921_" class="st46" d="M580.2,705.7c5.1,4.3,9.1,9.6,13.7,14.4c-8.5,0-17.1,0-25.6,0
		C571.8,715,575.7,710.1,580.2,705.7z"/>
	<path id="XMLID_920_" class="st47" d="M331.4,707.6c3.9,4.3,8.8,7.4,13.1,11.2c0.5,0.4,0.9,0.9,1.3,1.3c-9.4,0-18.7,0-28.1,0
		c3.2-3,6.4-6.1,9.7-9c1.2-1.1,2.4-2.2,3.4-3.6C331,707.3,331.2,707.3,331.4,707.6z"/>
	<path id="XMLID_919_" class="st48" d="M490.9,18.6c-1.5-6.1-3-12.2-4.5-18.3c4.4,0,8.7,0,13.1,0C496.6,6.4,494.2,12.7,490.9,18.6z"
		/>
	<path id="XMLID_918_" class="st49" d="M173.2,712.5c2.7,2.3,5.8,3.9,8.8,5.5c1,0.5,2.1,0.9,2.6,2.1c-5.8,0-11.7,0-17.5,0
		c2-2.4,4-4.7,5.5-7.5C172.8,712.4,173,712.3,173.2,712.5z"/>
	<path id="XMLID_917_" class="st50" d="M647,720.1c0-0.6,0-1.2,0-1.7c10.3,0.4,20.5,0.8,30.8,1.3c0.4,0,0.7,0.3,1.1,0.5
		C668.2,720.1,657.6,720.1,647,720.1z"/>
	<path id="XMLID_916_" class="st51" d="M198.3,5.3c-2.9-1.6-6.1-2.7-8.7-5c3.7,0,7.5,0,11.2,0C200.5,2.2,199.1,3.6,198.3,5.3z"/>
	<path id="XMLID_915_" class="st52" d="M1266.2,560.1c-20.1,0.2-40.2-0.6-60.2-0.8c-8.8-0.1-17.7-0.2-26.5-0.4
		c-18.5-0.5-37-0.3-55.5-0.8c-13.5-0.4-27.1,0.1-40.6-0.5c-7.4-0.4-14.7-0.5-22.1-0.4l0-0.1c-0.3-2,1.5-2.6,2.7-3.4
		c10.6-7.4,21.2-14.7,31.8-22c28.8-19.9,57.6-39.8,86.5-59.6c1.6-1.1,3.1-2.4,5.2-2.6c1.5,0.2,2.3,1.3,3.2,2.3
		c17.8,20.3,35.7,40.6,53.5,61c6.5,7.4,13,14.9,19.5,22.3C1264.9,556.5,1266.3,557.9,1266.2,560.1z"/>
	<path id="XMLID_914_" class="st53" d="M1266.2,560.1c-7.5-8.6-14.9-17.2-22.4-25.8c-8.2-9.4-16.3-18.8-24.5-28.1
		c-8.1-9.2-16.2-18.3-24.3-27.5c-2.5-2.9-4.8-5.9-7.7-8.5c0-0.4,0.1-0.8,0.4-1c3.6-1.9,7.7-1.6,11.6-2c12.7-1.5,25.3-2.9,38-4.3
		c9.5-1.1,19-2,28.4-3.2c1.6-0.2,3.4-0.3,4.7,1.1c-0.2,8.7-0.3,17.4-1,26.1c-0.2,2-0.1,3.9-0.1,5.9c-0.4,13.7-0.8,27.4-1.3,41.1
		c-0.3,8.8-0.8,17.6-1.2,26.4C1266.6,560.1,1266.4,560.1,1266.2,560.1z"/>
	<path id="XMLID_913_" class="st54" d="M788.9,82.2c0.6,0.2,1.2,0.4,1.8,0.7c12.4,4.3,23.5,11.4,35.2,17.3
		c11.7,5.8,23.3,11.9,34.9,18c12.7,6.6,25.4,13.3,38.3,19.7c1.1,0.6,2.1,1.3,3,2.1c0.2,0.3,0.3,0.6,0.3,0.9c0,0.3-0.1,0.6-0.3,0.9
		c-4.7,3.7-10.5,5.5-15.9,7.9c-29.4,13.2-58.9,26.3-88.3,39.5c-15,6.7-30,13.5-45,20.1c-1.1,0.5-2.3,1.1-3.6,0.8
		c-0.5-0.2-0.8-0.6-1-1c0-4.2,1.7-7.9,2.9-11.7c11.4-36.4,22.8-72.8,34.2-109.2c0.7-2.1,0.9-4.6,3.2-5.8
		C788.7,82.2,788.8,82.2,788.9,82.2z"/>
	<path id="XMLID_912_" class="st55" d="M902.1,141c0-0.3-0.1-0.5-0.1-0.8c-1.4-1.4-2.2-3.2-2.9-5c-4.8-13-9.8-26-14.6-39
		c-0.6-1.6-1.9-3.4-0.6-5.3c14.6-6.2,29.2-12.4,43.8-18.7c10.9-4.7,21.9-9.4,32.8-14.1c4.6-2,9.3-4,13.9-6c0.2,0,0.3-0.1,0.5-0.1
		c7-0.5,14-1,21-1.6c6.3-0.5,12.6-1,18.9-1.5c10.2-0.8,20.4-1.6,30.6-2.4c2.3-0.2,4.6-0.2,6.8-0.3c0.6,0,1.3-0.3,1.6,0.5
		c0.2,0.7-0.5,1.1-1,1.4c-4.3,2.8-8.5,5.5-12.8,8.3c-16.3,10.7-32.7,21.3-49,32.1c-1.2,0.8-2.7,1.2-2.9,3c-0.5,0.9-1.3,1.3-2.1,1.8
		c-26.3,15.4-52.6,31-79,46.4c-1.2,0.7-2.3,1.4-3.7,1.7C902.9,141.5,902.4,141.4,902.1,141z"/>
	<path id="XMLID_911_" class="st56" d="M883.8,90.9c5.2,14,10.5,28,15.6,42c0.9,2.4,2.1,4.7,2.4,7.3c-5.9-2.3-11.5-5.4-17.1-8.3
		c-10.3-5.2-20.4-10.7-30.7-16c-11.9-6.2-23.8-12.3-35.8-18.4c-8.2-4.2-16.5-8.4-24.7-12.6c-1.1-0.6-2.4-0.9-3.1-2.1
		c7.4-0.2,14.7,1,22,1.7c5.5,0.5,10.9,0.9,16.4,1.4c8,0.7,16.1,1.6,24.1,2.3c4.9,0.5,9.9,0.9,14.9,1.3
		C873.3,90.1,878.6,90.5,883.8,90.9z"/>
	<path id="XMLID_910_" class="st57" d="M1060.6,557.1c-7.6-2.4-15.2-4.8-22.9-7.2c-9.1-2.9-18.2-5.7-27.3-8.7
		c-8.3-2.7-16.6-5.5-24.9-8.2c-6.8-2.2-13.7-4.2-20.5-6.3c0,0-0.1-0.3-0.1-0.3c-0.2-0.3-0.3-0.5-0.3-0.9c0.6-2.6,1.9-4.8,3.1-7.1
		c9.1-17,18.3-34,27.3-51.1c0.9-1.6,1.5-3.4,3.1-4.6c0.5-0.3,1-0.3,1.5-0.5c4.4-1.5,9.1-1.7,13.7-2.4c11.3-1.7,22.5-3.5,33.8-4.9
		c0.8-0.1,1.6-0.2,2.5,0c1.1,0.2,1.8,1,2.3,1.9c1.9,3.8,4.2,7.4,5.3,11.6c0,0.6,0,1.1,0.1,1.7c1,8.1,1,16.3,1.5,24.5
		c0.7,10.6,1,21.3,1.7,32c0.4,5.6,0.6,11.2,0.8,16.8c0.1,2.6-0.1,5.2,0.5,7.8C1062.2,553.2,1062.1,555.3,1060.6,557.1z"/>
	<path id="XMLID_909_" class="st58" d="M1060.6,557.1c-0.6-10.8-1.1-21.7-1.7-32.5c-0.3-6.2-0.8-12.4-0.8-18.6
		c-0.1-5.8-0.2-11.6-0.7-17.4c-0.6-6.4-0.7-12.8-1-19.2c1.6-1.6,3.7-1.2,5.6-1.2c32,0,63.9,0,95.9,0c7.9,0,15.8,0,23.7,0
		c1.7,0,3.3,0,4.9,0.6c0.4,0.2,0.7,0.5,0.9,0.9c0,0.2,0,0.3,0,0.5c-7.3,4.2-13.9,9.4-20.9,14.1c-11.4,7.7-22.7,15.7-34.1,23.5
		c-23.7,16.4-47.4,32.9-71.2,49.3l-0.3,0L1060.6,557.1z"/>
	<path id="XMLID_908_" class="st59" d="M859.5,637.1c0.1-10.1,0.9-20.1,1.6-30.1c0.3-4,0.4-8.1,0.7-12.1c0.9-12.7,1.3-25.5,2.1-38.2
		c0.7-11.4,1.4-22.8,1.9-34.2c0.5-10.6,1.5-21.1,1.7-31.7c-0.7-0.9-0.2-1.5,0.5-2.1c0.3-0.2,0.6-0.2,1-0.2
		c5.5,1.1,10.6,3.6,15.8,5.6c25.3,9.8,50.5,19.6,75.8,29.4c1.6,0.6,3.8,0.7,3.8,3.2c-1.4,2.8-3.9,4.5-6,6.7
		c-12.9,13.7-25.9,27.3-38.9,40.9c-15.8,16.6-31.7,33.3-47.5,50C868,628.5,864,633.1,859.5,637.1z"/>
	<path id="XMLID_907_" class="st60" d="M964.5,526.6c-5.5-3-11.5-4.8-17.2-7c-25-9.8-50.1-19.4-75.2-29.1c-1.1-0.4-2.2-1.1-3.3-1.7
		c-0.4-1.6,0.7-2.5,1.7-3.4c8.1-7.9,16.5-15.5,24.8-23.2c4.2-3.9,8.3-7.8,12.5-11.7c7.9-7.5,16.1-14.7,23.8-22.4
		c1.2-1.2,2.4-2.8,4.5-1.7c0.2,0.2,0.4,0.5,0.5,0.8c6.1,17.9,11,36.2,16.6,54.2c3.9,12.7,7.6,25.5,11.5,38.2c0.6,2,1.2,4,0.5,6.1
		c0,0.2-0.1,0.4-0.1,0.6C964.8,526.5,964.6,526.5,964.5,526.6z"/>
	<path id="XMLID_906_" class="st61" d="M235.3,675.1c0,0.6,0,1.1,0,1.7l-0.1,0.2c-1.6,0.4-3.1-0.2-4.5-0.9
		c-8.4-4.2-16.8-8.2-25.2-12.4c-24-11.9-48.1-23.5-72-35.3c-15.7-7.7-31.4-15.3-47.1-23c-3-1.5-5.9-3.1-8.8-4.8
		c-0.4-0.3-0.6-0.8-0.7-1.2c-0.5-1.7,0.6-3,1.4-4.3c12.2-19.8,24.4-39.6,36.6-59.4c5.8-9.4,11.6-18.8,17.3-28.2c1-1.6,2.2-3,3.1-4.7
		c0.5-0.7,1.1-1.1,1.9-1.3c3.1,0.3,5.5,2.3,8.1,3.7c22.4,12.7,44.9,25.3,67.4,38c1.4,0.8,2.8,1.5,3.7,2.8c0.2,0.3,0.3,0.6,0.4,1
		c1.8,4.7,2,9.7,2.7,14.6c2.2,14.2,4.3,28.5,6.5,42.7c2.2,14.5,4.5,29.1,6.7,43.6c1.1,7.6,2.4,15.2,3.5,22.8
		C236.4,672.4,236.7,673.9,235.3,675.1z"/>
	<path id="XMLID_905_" class="st62" d="M384.5,678.1l-0.2,0l-0.2,0c-1.7-0.7-2.3-2.3-3-3.8c-10.8-25.4-21.8-50.7-32.7-76
		c-5.5-12.8-11-25.6-16.6-38.4c-1-2.3-1.8-4.6-1.7-7.2c0-0.2,0-0.5,0-0.7c0.1-0.1,0.3-0.3,0.4-0.4c2.3-1,4.7-1.1,7-0.7
		c3.4,0.6,6.8,0.4,10.3,0.5c13.9,0.3,27.8,1,41.7,1.4c10.7,0.3,21.4,0.8,32,1.2c12.7,0.4,25.3,0.9,38,1.3c10.8,0.4,21.6,1,32.3,1.1
		c3.6,0,7.2,0.6,10.8,1.1c1.7,0.5,1.7,1.6,0.9,2.9c-0.6,1-1.5,1.8-2.3,2.6c-37.6,37.6-75.1,75.1-112.7,112.7
		C387.4,676.7,386.4,678.1,384.5,678.1z"/>
	<path id="XMLID_904_" class="st63" d="M330.1,552c-0.4,0-0.8,0.1-1.1,0.1c-3.3,2.3-7.1,1.5-10.6,1.1c-5.5-0.6-11-0.6-16.4-0.9
		c-11-0.5-21.9-1.1-32.9-1.6c-12.9-0.5-25.9-1.3-38.8-1.9c-3.4-0.2-6.8-0.4-10.2-0.5c-1.6,0-3.1-0.2-4-1.8l0-0.1
		c-0.3-0.6-0.2-1.2,0.2-1.8c15-16,30.2-31.9,45.3-47.7c12-12.6,23.9-25.2,35.9-37.8c4.3-4.5,8.5-9.1,13-13.5
		c1.5-1.5,2.2-3.2,2.6-5.2c2.6-14.4,5.4-28.8,8.1-43.2c0.4-1.9,0.3-4,2.1-5.4c1.8-0.7,3,0.5,4.1,1.5c8.3,8,16,16.6,24.1,24.9
		c8.2,8.4,16.1,17.1,24.4,25.4c1.5,1.5,2.9,3,4.1,4.7c0.2,0.8,0,1.4-0.6,1.9c-1.5,1-3.2,0.7-4.8,0.6c-15-1.3-30.1-2.6-45.1-3.9
		c-3.1-0.3-6.4,0.1-9.5-1.3c-0.8-0.4-1.8,0-2.7,0.4c-1.5,0.8-1.5,1.9-1.3,3.4c2.1,14.8,4.4,29.5,6.6,44.3
		c2.2,14.9,4.5,29.7,6.7,44.6c0.6,4.2,1.4,8.4,1.7,12.6c-0.1,0.4-0.2,0.7-0.4,1L330.1,552z"/>
	<path id="XMLID_903_" class="st64" d="M215.9,546.5c0.8,0.2,1.6,0.5,2.4,0.5c11.1,0.4,22.2,0.8,33.2,1.3c14,0.7,27.9,1.6,41.9,2.3
		c6,0.3,12,0.5,18,0.8c5.8,0.2,11.6,0.5,17.4,0.7c-2.3,4.9-6.1,8.9-9.3,13.2c-27.2,36.3-54.4,72.6-81.7,108.8
		c-0.6,0.8-0.9,2.8-2.6,1.1c-1.6-10.7-3.1-21.4-4.7-32c-2.8-18.4-5.7-36.7-8.5-55.1c-2-13.2-4.1-26.5-6.1-39.7
		C215.9,547.7,215.9,547.1,215.9,546.5z"/>
	<path id="XMLID_902_" class="st65" d="M330.1,552.7c10.6,24.6,21.2,49.3,31.7,73.9c7.4,17.2,14.8,34.4,22.2,51.5
		c-9,5.1-18.1,10.1-27.1,15.2c-8.5,4.8-17,9.5-25.5,14.3c-0.2,0-0.4,0-0.7-0.1c0-11.9,0.4-23.7-0.1-35.6c-1-25.4,0.1-50.7-0.7-76.1
		c-0.4-13.2-0.2-26.4-0.4-39.6C329.6,555.1,329.3,553.8,330.1,552.7z"/>
	<path id="XMLID_901_" class="st66" d="M77.8,600.1c4.8,2.3,9.6,4.5,14.4,6.8c29.7,14.5,59.4,29.1,89.1,43.6
		c17.1,8.4,34.2,16.7,51.3,25c0.9,0.5,1.8,1,2.7,1.5c-7.2,4.8-15,8.7-22.6,13c-13.1,7.5-26.3,15-39.5,22.4c-0.2,0-0.4,0.1-0.5,0.1
		c-0.6-0.4-1.2-0.9-1.8-1.3c-12.1-11.9-22.2-25.5-33.3-38.2c-7.3-8.4-14.3-17-21.6-25.4c-0.8-1.3-1.5-2.7-2.9-3.6
		c-0.2-0.2-0.4-0.4-0.6-0.6c-0.8-1.5-1.8-2.8-3.2-3.8c-0.2-0.2-0.4-0.4-0.6-0.6c-0.7-1.2-1.4-2.4-2.6-3.2c-0.2-0.2-0.4-0.4-0.6-0.6
		c-0.8-1.5-1.8-2.8-3.2-3.8c-0.2-0.2-0.4-0.4-0.6-0.6c-0.7-1.2-1.4-2.4-2.6-3.2c-0.2-0.2-0.4-0.4-0.6-0.6c-1.8-2.7-3.8-5.2-6.3-7.5
		c-0.2-0.2-0.4-0.4-0.6-0.6c-1.8-2.7-3.9-5.2-6.3-7.5c-0.2-0.2-0.4-0.4-0.6-0.6c-1.8-2.7-3.9-5.2-6.2-7.5c-0.2-0.2-0.4-0.4-0.6-0.6
		C77.7,602.1,77.1,601.2,77.8,600.1z"/>
	<path id="XMLID_900_" class="st67" d="M116.5,647c4.8,4.4,8.6,9.8,12.9,14.7c6.5,7.5,12.8,15.2,19.2,22.7
		c7.2,8.5,14.5,17,21.7,25.5c0.3,0.4,0.4,0.9,0.6,1.4c-17.8-13.9-35.6-27.8-53.4-41.7c-13.7-10.7-27.5-21.4-41.2-32.1
		c-8.3-6.5-16.6-13.1-24.9-19.6c-0.7-0.6-1.6-1-2.4-1.5c0.2-0.2,0.4-0.4,0.6-0.7c5.9-2,11-5.6,16.4-8.7c2.7-1.6,5.5-2.9,8.1-4.6
		c1.6-1.1,3.3-1.1,4.9,0.2l0,0c2,2.9,4,5.9,6.9,8.1l0,0c2,2.9,4,5.9,6.9,8.1l0,0c2,2.9,4,5.9,6.9,8.1l0,0c0.9,1.4,1.5,3,3.1,3.8l0,0
		c0.9,1.7,2.1,3.3,3.8,4.4l0,0c0.9,1.4,1.5,3,3.1,3.8l0,0c0.9,1.7,2.1,3.3,3.8,4.4l0,0C114.3,644.6,114.9,646.2,116.5,647z"/>
	<path id="XMLID_899_" class="st68" d="M903.1,141c7.1-4.9,14.7-8.9,22.1-13.3c19.6-11.6,39.2-23.2,58.8-34.7
		c1.2-0.7,2.5-1.6,4.1-1.4c13.5,16.3,27,32.5,40.3,48.9c1.4,1.7,4.4,2.8,3.4,6c-1.4,3.5-3.1,6.8-5.2,9.9
		c-11.8,17.9-23.5,35.8-35.1,53.8c-0.9,1.4-2.2,2.5-2.7,4.2c-0.3,0.6-0.7,1.1-1.3,1.4c-0.5,0.2-0.9,0.2-1.4,0.1
		c-4.4-2.8-8-6.6-11.9-10c-15.4-13.6-30.9-27.2-46.4-40.8c-7.4-6.5-14.8-13.1-22.2-19.6C904.5,144.2,902.9,143.1,903.1,141z"/>
	<path id="XMLID_898_" class="st69" d="M988.1,214.1c1.9-4.2,4.7-7.8,7.1-11.6c11.5-17.7,23.1-35.5,34.7-53.2c0.6-1,1.3-1.9,2-2.8
		c-1,6.7-3.3,13.1-5,19.6c-2.3,8.9-4.8,17.8-7.2,26.7c-0.1,0.4-0.1,0.8-0.2,1.6c2.7-2.4,3.8-5.4,5.4-8c7.7-12,14.5-24.5,22.7-36
		c8.3-11.8,10.9-25.4,14.2-38.8c2.1-8.6,4.2-17.1,6.3-25.7c0.2-0.2,0.4-0.5,0.6-0.7c1.2,0.3,1.9,1.2,2.7,2
		c17.6,17.2,34.6,35.1,51.8,52.7c9.3,9.4,18.6,18.7,27.8,28.2c1.1,1.2,2.5,2.2,2.6,4.1c0,0.3-0.1,0.7-0.3,1
		c-0.3,0.5-0.7,0.8-1.2,0.9c-10,2.7-20.4,3.8-30.6,5.6c-18.1,3.2-36.2,6.2-54.3,9.3c-15.1,2.6-30.3,5.2-45.4,7.8
		c-0.9,0.2-1.9,0.1-2.8,0.4c-9,5-17.6,10.7-26.5,15.8C991.3,213.9,989.9,215.2,988.1,214.1z"/>
	<path id="XMLID_897_" class="st70" d="M1153.1,172.1c-5.1-5.2-10.2-10.4-15.3-15.6c-13.1-13.3-26.5-26.4-39.3-40.1
		c-9.1-9.6-18.6-18.7-27.8-28.2c-0.9-0.9-1.9-1.6-2.1-3c8-4.3,15.9-8.5,23.9-12.8c12.7-6.7,25.4-13.4,38-20.1c9.4-5,18.9-10,28.3-15
		c10.7-5.7,21.5-11.4,32.2-17.1c0.2,0,0.4,0,0.6,0c2.5,1,1.3,3,1,4.4c-1.2,5.7-2.9,11.3-4.3,16.9c-9.9,38.9-19.9,77.7-29.8,116.6
		c-1,4-1.9,8.1-3.3,12C1155,171.3,1154.7,172.5,1153.1,172.1z"/>
	<path id="XMLID_896_" class="st71" d="M868.1,489c-0.2,0.6-0.4,1.2-0.6,1.8c-1.6,3.1-3.4,6.2-4.9,9.4c-9,19.1-17.9,38.2-26.9,57.3
		c-7.1,15.3-14.2,30.5-21.4,45.8c-0.5,1.1-1.3,2.1-1.9,3.2c-2.1,0.3-2.6-1.5-3.3-2.7c-8.2-13.2-16.2-26.4-24.4-39.6
		c-10.7-17.2-21.3-34.5-31.9-51.8c-1.5-2.4-3.4-4.7-3.7-7.8c0.1-0.3,0.4-0.6,0.7-0.8c3.9-2,8.3-1.8,12.5-2.3
		c13.9-1.9,27.8-3.7,41.7-5.5c11.7-1.5,23.5-3.1,35.2-4.6c8.4-1.1,16.9-2.3,25.3-3.3c1.2-0.1,2.3-0.3,3.3,0.4
		C867.9,488.7,868,488.8,868.1,489z"/>
	<path id="XMLID_895_" class="st72" d="M749.6,505.1c4.4,7,8.9,14,13.2,21.1c9.8,15.9,19.6,31.8,29.5,47.8
		c6.3,10.2,12.5,20.4,18.8,30.5c0.4,0.7,0.8,1.5,1.5,1.9c0,0.7,0,1.3-0.6,1.8c-0.7-1.2-1.8-1.2-3-1.1c-5.9,0.4-11.8,0.8-17.7,1.2
		c-13.7,0.8-27.5,1.6-41.2,2.4c-3.9,0.2-7.9,0.3-11.8,0.6c-9.9,0.8-19.9,0.9-29.8,1.4c-3,0.1-6,0.9-9,0.6l-0.1,0
		c-0.2-0.2-0.4-0.5-0.5-0.8c0.1-2.5,1.4-4.6,2.3-6.7c9.9-21.4,19.9-42.7,29.8-64.1c5.3-11.3,10.4-22.6,15.8-33.9
		c0.4-0.8,0.8-1.5,1.3-2.1C748.6,505.3,749.1,505.1,749.6,505.1z"/>
	<path id="XMLID_894_" class="st73" d="M136,503.3c-4.9,8.1-9.7,16.2-14.7,24.2c-14.7,24-29.4,48-44.2,72c-0.2,0.2-0.4,0.2-0.7,0.1
		c-21.4-10.6-42.9-21.3-64.3-31.9c-1.9-0.9-3.8-1.7-5.6-2.6c0-0.2,0-0.4,0-0.5c0.3-1.7,1.7-2.3,3-2.9c21.6-10.3,43.2-20.6,64.8-30.9
		c19-9,37.9-18.2,57-27C132.8,503.2,134.3,502,136,503.3z"/>
	<path id="XMLID_893_" class="st67" d="M76.5,599.6c0.2,0,0.5-0.1,0.7-0.1c0.2,0.2,0.4,0.4,0.6,0.6c0.4,0.8,0.8,1.7,1.2,2.5
		c-4.6-0.5-8,2.4-11.5,4.6c-4.5,2.7-9.1,5.1-13.6,7.8c-1.2,0.8-2.8,0.8-4.2,0.7c8.3-4.9,16.6-9.8,24.9-14.6
		C75.3,600.7,76.1,600.4,76.5,599.6z"/>
	<path id="XMLID_892_" class="st74" d="M699.4,612.6c0,0.2,0,0.4,0,0.7c-1.4,0.7-2,2.1-2.8,3.3c-5.5,9.1-11,18.3-16.5,27.4
		c0,0.2-0.1,0.3-0.2,0.5c-4.1,3.4-9.3,4.4-14.1,6.2c-10.6,4.1-21.3,8.1-32,12.1c-1.6,0.6-3.1,1.3-4.8,1.1c-0.6-0.1-1-0.3-1.4-0.8
		c-1.5-3.8-1.4-7.9-1.9-11.9c-1.3-10.2-2.5-20.4-3.6-30.6c-1.3-11.6-2.7-23.3-4-34.9c-1.3-11.5-2.7-23.1-4.1-34.6
		c-1.3-10.5-2.5-21-3.7-31.5c-0.2-1.4,0-2.9,0.3-4.3c0.1-0.3,0.3-0.6,0.6-0.8c2-0.6,3.1,1,4.1,2.2c11.1,12.6,22.2,25.1,33.2,37.7
		c11.8,13.4,23.6,26.8,35.5,40.3c4.7,5.4,9.4,10.8,14.3,16.1C698.8,611.3,699.1,612,699.4,612.6z"/>
	<path id="XMLID_891_" class="st75" d="M628.3,663.2c0.4,0,0.8,0.1,1.2,0.1c1.2,0.7,1.5,1.9,1.9,3.1c5.1,15.5,9.8,31.1,14.9,46.5
		c0.5,1.6,0.6,3.2,0.2,4.9c0,0.1,0,0.2,0,0.3c-6.3-0.4-12.4-2.2-18.6-3.4c-15.9-3.1-31.8-6.4-47.7-9.7c-0.2-0.1-0.3-0.1-0.5-0.1
		c-0.8-0.4-1.8-0.6-2.2-1.6c-0.6-2.2-2.3-3.7-3.5-5.5c-9-14.1-18-28.1-27-42.2c-0.8-1.3-2-2.5-1.4-4.3c0.2-0.3,0.4-0.5,0.8-0.6
		c4.5-0.6,8.9,0.7,13.2,1.3c15.7,2.2,31.4,4.5,47,6.7c6,0.9,12.1,1.8,18.1,2.6C626,661.7,627.3,662.1,628.3,663.2z"/>
	<path id="XMLID_890_" class="st76" d="M646.5,717.8c-5.4-16.8-10.7-33.5-16.1-50.3c-0.4-1.4-1-2.7-0.9-4.2
		c9.9-3.8,19.9-7.6,29.8-11.4c5.4-2.1,10.8-4.1,16.2-6.2c1.5-0.6,2.9-1.1,4.5-1.2c-10.8,23.8-21.6,47.7-32.4,71.5
		C647.3,716.6,646.9,717.2,646.5,717.8z"/>
	<path id="XMLID_889_" class="st77" d="M712.2,79.6c0.1,0.1,0.2,0.1,0.3,0.1c1.8,1.1,2.3,2.9,2.8,4.7c6.3,22.7,12.7,45.4,19,68.2
		c4.5,16.3,9.1,32.6,13.7,48.9c0.7,2.5,1.1,5.1,0.6,7.7c-0.5,1.3-1.6,1.3-2.7,1.3c-9.6-2.9-19.6-3.3-29.4-5.2
		c-17.4-3.3-34.8-6.2-52.2-9.1c-22.5-3.8-45-7.9-67.6-11.7c-2.9-0.5-6-0.5-8.7-2.3c-0.3-0.2-0.5-0.5-0.6-0.8c-0.1-2.1,1.6-3,3-4.1
		c20-16.3,40.1-32.5,60.1-48.8c18.8-15.2,37.5-30.4,56.3-45.6c1.5-1.2,2.9-2.3,4.5-3.3C711.6,79.6,711.9,79.6,712.2,79.6z"/>
	<path id="XMLID_888_" class="st78" d="M748.5,209.1c-6.3-22.5-12.6-45-18.8-67.5c-5.7-20.6-11.5-41.2-17.2-61.9
		c1.8,0.4,3.7,0.5,5.6,0.5c10.2,0.2,20.3,0.2,30.5,0.7c13.4,0.6,26.7,1.1,40.1,1.3c-5.1,16.2-10.2,32.5-15.2,48.7
		c-7.7,24.7-15.5,49.3-23.2,73.9c-0.4,1.4-1,2.7-1.5,4.1L748.5,209.1z"/>
	<path id="XMLID_887_" class="st79" d="M590.7,72.8c0.2-1.2,1.2-1.3,2-1.7c17.9-7,35.8-14,53.7-21c16.4-6.5,32.9-13,49.3-19.5
		c1.1-0.5,2.4-0.7,3.6-1c4.1,15.8,8.2,31.7,12.3,47.5c0.2,0.8,0.3,1.6,0.5,2.4l-0.2,0.2c-2,1-4.1,1.1-6.3,0.8
		c-4.1-0.6-8.3-0.5-12.4-0.7c-9.4-0.4-18.9-1-28.3-1.5c-13.1-0.8-26.1-1.2-39.2-2.3c-4.3-0.4-8.7-0.5-13.1-0.7
		c-6.1-0.2-12.2-1-18.4-0.9C593,74.3,591.7,73.9,590.7,72.8z"/>
	<path id="XMLID_886_" class="st80" d="M2.2,412.7c-0.1-0.2-0.1-0.3-0.1-0.5c0.5-12.3,1-24.7,1.4-37c0.4-10.9,0.8-21.8,1.2-32.7
		c0.4-10.8,0.8-21.6,1.2-32.4c0.4-10.9,0.8-21.8,1.2-32.7c0.4-10.8,0.8-21.6,1.2-32.4c0.4-10.7,0.8-21.4,1.2-32
		c0.4-10.8,0.8-21.6,1.3-32.4c0.4-10.9,0.8-21.8,1.3-32.7c0.4-10.7,0.8-21.4,1.2-32c0.4-11,0.8-22,1.3-33c0.4-10.7,0.8-21.4,1.3-32
		c0.2-5.5,0.4-11,0.5-16.5c0-0.9-0.1-1.9,1.1-2.3c1.2,0.7,1.3,1.8,1.4,3c1,13,2.2,26.1,3.3,39.1c1.2,15.1,2.5,30.2,3.8,45.3
		c1,12.3,2,24.6,3.1,36.9c1.2,13.5,2.2,27.1,3.5,40.6c0.5,5.5,0.9,11,1,16.5c0.1,4.1,1,8.1,0.7,12.1c0.4,3-1,5.7-2.1,8.3
		c-3.9,9.5-7.8,18.9-11.6,28.5c-0.2,0.6-0.5,1.1-0.5,1.8c-0.1,1.1,0.9,1.7,1.2,2.7c11.9,15.9,23.3,32.1,35,48.2
		c20,27.6,39.9,55.3,59.9,83c1.3,1.8,3.2,3.4,3,5.9c-0.2,0.3-0.4,0.6-0.7,0.8c-1.2,0.7-2.5,1.1-3.9,1.1c-13,0.4-25.9,1.8-38.8,2.7
		c-14,0.9-27.9,2.2-41.9,3.1c-9,0.6-18,1.5-27,2.1c-1.3,0.1-2.5-0.1-3.7-0.3C2.8,413.2,2.5,412.9,2.2,412.7z"/>
	<path id="XMLID_885_" class="st81" d="M33.5,226.4c-0.1-9.9-1.6-19.6-2.1-29.5c-0.3-6-1.1-12-1.6-17.9c-1.5-17-2.9-34.1-4.3-51.1
		c-0.9-11.5-1.6-23-2.7-34.4c-1.3-13.3-2-26.6-3.6-39.9c-0.8-7.1-1-14.2-1.4-21.4c-0.2-2.7-0.3-5.4-0.5-8.1c0.2,0.2,0.4,0.3,0.6,0.5
		c1.5,0.8,2.8,1.7,3.8,3.1c5.8,8,12,15.7,17.9,23.6c1.1,1.5,2.3,3,2.6,4.9c-0.2,7.5-0.3,15-0.9,22.4c-0.1,0.7-0.2,1.4-0.2,2.2
		c0.3,8.3-0.5,16.6-0.8,24.9c-0.3,11-0.8,22-1.3,33c-0.4,10-0.8,19.9-1.2,29.9c-0.5,10.8-0.8,21.6-1.3,32.4
		c-0.4,7.3-0.3,14.5-1.1,21.8c-0.1,1.1-0.2,2.3-0.9,3.3C34.2,226.6,33.9,226.6,33.5,226.4z"/>
	<path id="XMLID_884_" class="st82" d="M545.8,651.4c-0.1,0.1-0.2,0.2-0.1,0.4c-1.2,2.2-3.4,1.5-5.3,1.7c-5.9,0.7-11.8,1.7-17.7,1.5
		c-3.6,1.7-6.3,4.7-9.1,7.4c-12.5,11.8-25,23.6-37.7,35.3c-1.2,1.1-2.5,1.8-3.9,2.4c-0.2,0-0.4,0-0.6,0.1
		c-19-4.7-37.9-9.4-56.9-14.1c-8.8-2.2-17.5-4.4-26.3-6.6c-1.3-0.3-2.7-0.3-3.8-1.3c0.9-1,1.8-2,2.7-3c38-38,76-75.9,113.9-113.9
		c1-1,1.8-2,2.7-3c0.1-0.1,0.3-0.2,0.4-0.3c0.3-0.1,0.6,0,0.9,0.1c1.2,0.8,1.7,2.1,2.2,3.3c12.4,28,24.7,56,37.2,83.9
		c0.7,1.5,1.2,3.1,1.7,4.7C546.4,650.5,546.2,651,545.8,651.4z"/>
	<path id="XMLID_883_" class="st83" d="M1153.1,172.1c0.7-0.4,1-0.9,1.2-1.7c7.1-27.9,14.1-55.7,21.2-83.6
		c5.3-20.8,10.7-41.6,16-62.4c0.3-1.3,1.4-2.7,0.3-4.1c2.2-1,2.1,1.2,2.6,2.1c8.4,16.8,16.6,33.6,24.9,50.4
		c4.7,9.4,9.3,18.9,13.9,28.3c0.2,0.4,0.7,0.7,1,1.1c0.2,0.2,0.3,0.5,0.3,0.8c-0.6,2-2.3,3.2-3.8,4.5
		c-21.9,18.9-43.6,37.8-65.4,56.8c-3.6,3.1-6.9,6.6-11.1,9c-0.5,0-0.9-0.1-1.2-0.5C1153.1,172.5,1153.1,172.3,1153.1,172.1z"/>
	<path id="XMLID_882_" class="st84" d="M1234.3,102.8c0-0.2,0-0.4,0-0.7c1.1-8.8,2.1-17.7,3.3-26.5c1.4-10.5,2.8-20.9,4.2-31.4
		c1-7.7,2.1-15.4,3.1-23.1c0.1-0.7,0.4-1.4,0.7-2.1c1.9,3.6,2.1,7.6,3,11.4c5.9,26.7,11.6,53.3,17.4,80c1.6,7.4,3.1,14.8,4.6,22.2
		l0.1,0.1c-0.2,0.2-0.5,0.3-0.8,0.3c-4.5-2.6-8.2-6.3-12.2-9.6c-6.8-5.6-13.6-11.2-20.4-16.9
		C1235.9,105.6,1234.4,104.7,1234.3,102.8z"/>
	<path id="XMLID_881_" class="st85" d="M198.3,5.8c0-0.2,0.1-0.3,0.1-0.5c14.1,3.6,28.1,7.2,42.2,10.7
		c37.2,9.3,74.3,18.5,111.5,27.8c0.6,0.1,1.2,0.1,1.8,0.2c0,0,0.2,0.1,0.2,0.1c0.2,0.3,0.3,0.5,0.3,0.9c-0.2,2-1.7,3.3-2.8,4.8
		c-18.3,23.5-36.6,47-54.9,70.5c-28.1,36.1-56.3,72.1-84.3,108.1c-1.7,2.2-3.4,4.5-5.2,6.6c-0.9,1.1-2,2.7-3.9,1.4
		c-1.3-1.6-1.5-3.6-2-5.5c-4.5-19-8.9-38-13.5-57c-0.3-1.1-0.6-2.2-0.5-3.4c-0.6-4.6,0.1-9.1,0.5-13.6c0.4-4.6,0.5-9.3,0.8-14
		c0.6-8.8,1-17.6,1.6-26.4c0.7-11.6,1.1-23.2,2.3-34.8c0.4-3.8,0.4-7.7,0.6-11.5c0.4-8.9,1.1-17.8,1.5-26.7
		c0.5-10.5,1.3-20.9,1.9-31.4C196.6,9.9,196.9,7.6,198.3,5.8z"/>
	<path id="XMLID_880_" class="st86" d="M1269.9,135.3c1,1.1,0.6,2.4,0.6,3.6c0,106.5,0,213,0,319.5c-2-0.1-1.7-1.9-2.1-3
		c-3.8-11.3-6.5-23-9.7-34.5c-6-21.5-11.8-43.1-17.7-64.7c-4.1-14.6-8-29.3-11.9-43.9c-3.4-12.5-6.9-25-10.2-37.6
		c-0.4-1.6-0.8-3.2-1.1-4.9c-0.1-1.5-1.2-2.5-1.4-4c0-0.5,0.1-0.9,0.4-1.4c15.9-41,32.8-81.5,48.9-122.4c0.6-1.5,1.2-3.1,1.9-4.6
		C1268.1,136.4,1268.4,135.1,1269.9,135.3z"/>
	<path id="XMLID_879_" class="st87" d="M1269.9,135.3c-5.4,13.5-10.8,26.9-16.3,40.4c-8.2,20.3-16.4,40.6-24.6,61
		c-3.6,9-7.1,18-10.6,27c-0.2,0.6-0.7,1-1,1.5c-2.1-0.4-2.8-2.3-3.7-3.9c-14.4-24.7-24-51.5-35.6-77.5c-1.4-3.2-3.2-5.2-6.8-5.3
		c-1,0-2.1-0.3-3-0.6c-1.3-0.5-2.3-1.1-1.6-2.8c2-1.4,4.1-0.6,6-0.1c4.5,1.2,8.4,0.3,12.5-1.8c26.8-13.5,54-26.2,80.9-39.6
		c1.2-0.6,2.4-1.2,3.9-0.8c0.2,0,0.4,0,0.6,0C1270.4,133.6,1270.1,134.4,1269.9,135.3z"/>
	<path id="XMLID_878_" class="st88" d="M1270.4,460.7c-9.2,0.4-18.3,1.9-27.5,2.8c-10.1,1-20.1,2.3-30.2,3.4
		c-8.4,1-16.9,1.9-25.3,2.8l0.1-0.2c-0.2-0.3-0.4-0.5-0.5-0.9c-0.2-1.8,0.3-3.5,0.7-5.2c4.1-16.1,8.6-32.1,12.5-48.3
		c0.7-2.7,1.3-5.4,2.6-8c4.9-9.5,10.3-18.7,15.6-27.9c0.5-0.8,1.1-1.5,2.1-1.8c2.5,0.1,3.1,2.2,4.1,3.8c9,14.8,17.8,29.7,26.7,44.6
		c4.8,8,9.5,16.1,14.5,24c1.9,3.1,3.1,6.6,4.8,9.7c0,0.2,0.1,0.4,0.1,0.6C1270.5,460.3,1270.5,460.5,1270.4,460.7z"/>
	<path id="XMLID_877_" class="st89" d="M1270.5,459.6c-4.2-5.5-7.3-11.6-10.8-17.4c-12.4-20.6-24.6-41.2-37-61.8
		c-0.6-1-1-2.1-2.1-2.6c-1.1,0.1-2.2,0.4-2.8-1c-0.1-0.4,0-0.8,0.1-1.1c1-2.2,0.9-4.5,0.6-6.8c-0.5-3-0.5-6-0.5-9
		c0.2-11.6-0.6-23.1-0.8-34.6c-0.2-7.4,0.2-14.8-0.6-22.1c-0.9-9.1,0.3-18.3-1-27.4c-0.2-1.7-0.3-3.6,0.2-5.3c0.4-1.3,1-3,2.9-1.4
		c4,15,7.9,30,12,45c11.2,41.1,22.5,82.3,33.8,123.4c1.9,7,4,14,6,20.9C1270.5,458.7,1270.5,459.1,1270.5,459.6z"/>
	<path id="XMLID_876_" class="st90" d="M567.6,59.9c0,0.2,0,0.3,0,0.5c0.2,0.3,0.2,0.6,0.1,0.9c-2.1,2.5-5,4.1-7.7,5.8
		c-16.4,10.4-32.6,21.2-49,31.7c-1.4,0.9-2.7,2.1-4.5,1.9c-0.3-0.1-0.6-0.3-0.8-0.5c-1.6-2.7-2.2-5.8-2.8-8.8
		c-2.4-12.7-4.9-25.4-7.3-38.1c-1.8-9.7-4.2-19.2-5.5-29c-0.2-1.5-0.8-3.1,0.5-4.4l0-0.1c13.9,7.3,27.7,14.6,41.6,21.9
		C544.1,47.6,555.9,53.8,567.6,59.9z"/>
	<path id="XMLID_875_" class="st91" d="M567.6,60.9c0-0.2,0-0.4,0-0.5c5.3,2.2,9.8,5.9,14.8,8.8c2.1,1.2,4,2.8,6.4,3.7
		c0.6,0,1.3,0,1.9,0c1,0.2,2.2-0.2,3.1,0.6c-1.2,1.6-3,1.2-4.6,1.3c-1,0-1.6,0.6-2.3,1.4c-14,16.8-28.2,33.4-42.3,50.1
		c-1,1.2-1.9,3.2-4.2,2c-0.7-1.5,0-2.9,0.5-4.2c8-19.6,15.9-39.3,23.9-59C565.5,63.4,566.8,62.4,567.6,60.9z"/>
	<path id="XMLID_874_" class="st92" d="M40.9,55.3c-7.7-10.2-15.4-20.4-23.1-30.6C25.9,25,33.9,26,42,26.9
		c7.1,0.8,14.2,1.4,21.3,2.1c7.1,0.7,14.2,1.5,21.3,2.2c7.5,0.7,15,1.9,22.6,2.2c0.4,0,0.7,0.1,1.1,0.1c1.5,0.5,2.7,1.3,3.9,2.4
		c4.8,4.1,9.4,8.5,14.2,12.6c1.1,0.9,2.2,1.9,3,3.2c0.7,1,0.9,2.1-0.2,3.1c-1.1,0.8-2.4,0.7-3.6,0.7C109.8,55,94,56,78.2,56.1
		c-10.9,0.1-21.8,0.6-32.7,0.5C43.9,56.6,42.1,56.8,40.9,55.3z"/>
	<path id="XMLID_873_" class="st93" d="M198.3,5.8c-0.5,8.7-0.9,17.4-1.6,26.1c-0.3,3.8-0.4,7.7-0.7,11.5
		c-0.9,12.6-1.3,25.3-2.1,37.9c-1.1,17.5-2.2,35-3.2,52.5c-0.6,10-1.3,20.1-1.8,30.1c-0.1,2.3-0.3,4.5-0.5,6.8
		c-0.8,0.6-1.7,0.3-2.3-0.2c-3.2-2.1-6.6-4-9.1-7c-2.7-3.9-4.1-8.4-5.9-12.7c-11.9-27.7-23.9-55.4-35.9-83
		c-1.5-3.4-2.9-6.9-4.4-10.3c-0.6-1.3-1-2.5-0.6-3.9c0.1-1.8,1.6-2.6,2.8-3.5c17.2-12.2,34.4-24.3,51.6-36.5c4-2.8,7.9-5.7,12.4-7.7
		C197.5,5.9,197.9,5.9,198.3,5.8z"/>
	<path id="XMLID_872_" class="st94" d="M197.1,6c-5.5,4.6-11.5,8.4-17.4,12.6c-15.9,11.3-31.9,22.5-47.8,33.8
		c-0.4,0.3-0.7,0.8-1,1.1c-0.4,0.3-0.8,0.3-1.2-0.1c-4.9-5.5-10.9-9.9-16.3-14.9c-1.7-1.6-3.6-3.1-5.1-5
		c15.2-4.7,30.5-9.4,45.7-14.2c10.7-3.3,21.3-6.8,32-10.1C189.7,8,193.4,7,197.1,6z"/>
	<path id="XMLID_871_" class="st95" d="M354.1,44.6c0-0.2,0-0.4,0-0.5c9.2-5.4,18.4-10.8,27.5-16.2c2-1.2,4-2.5,6-3.8
		c9.1-1.7,18.1-3.4,27.2-5.2c7.9-1.6,15.9-3.2,23.8-4.8c0.7-0.1,1.4-0.5,2-0.7c0.8,0.2,1.7,0.3,2.5,0.5c0,2,1.4,3.2,2.5,4.5
		c18.8,24.9,37.6,49.8,56.5,74.6c1.1,1.5,2,3.1,2.9,4.8c0.4,0.7,0.9,1.5-0.1,2.2c-1.4,0.6-2.7,0.1-3.9-0.4
		c-28.2-10.4-56.3-20.9-84.5-31.3c-18.3-6.8-36.6-13.6-55-20.3c-2.1-0.8-4.1-2-6.4-2.5C354.7,45.3,354.4,45,354.1,44.6z"/>
	<path id="XMLID_870_" class="st96" d="M472,700.1c8-7.6,16-15.3,24.1-22.9c5.8-5.5,11.6-10.9,17.5-16.3c2.6-2.4,5.3-4.6,7.9-6.9
		c4,1.6,6.7,4.8,9.8,7.5c13.9,11.9,27.7,23.9,41.6,35.8c2,1.7,3.9,3.7,5.4,6c0.5,0.6,0.9,1.2,1.4,1.8c-13.8-0.1-27.5-0.9-41.3-1.7
		c-4.4-0.3-8.9-0.2-13.3-0.6c-7.3-0.6-14.7-0.5-22.1-0.8c-9.4-0.4-18.8-0.8-28.2-1.3C473.8,700.6,472.9,700.3,472,700.1z"/>
	<path id="XMLID_869_" class="st97" d="M2.2,412.7c0.2,0,0.4,0,0.5,0.1c2.6,0.6,4.7,2,6.9,3.5c34,22.5,68,45,102,67.5
		c8.3,5.5,16.5,11.1,25,16.4c0.4,0.2,0.7,0.6,0.8,1.1c0,0.3-0.1,0.6-0.3,0.8c-0.4,0.4-0.8,0.8-1.2,1.2c-3.5,1.5-7.1,3-10.5,4.6
		c-10.2,4.8-20.4,9.8-30.6,14.7c-11.7,5.6-23.5,11.1-35.2,16.7c-10.1,4.8-20.2,9.7-30.3,14.5c-7.6,3.6-15.2,7.2-22.8,10.8
		c-0.6-0.5-0.7-1.3-0.7-2c0.4-6.2-0.7-12.4-0.6-18.7c0.2-13.4-0.6-26.8-0.8-40.2C4.3,496,4.3,488.3,4,480.6
		c-0.7-17.5-1-35.1-1.4-52.7C2.5,422.8,2.2,417.8,2.2,412.7z"/>
	<path id="XMLID_868_" class="st98" d="M505.2,99.7c-2.5-4.9-6.3-9-9.5-13.4c-6.6-9-13.4-17.7-20.1-26.6c-11-14.5-21.9-29-32.9-43.5
		c-0.9-1.2-1.7-2.1,0.5-2.5c13,1.7,25.9,3.4,38.9,5.1c2.9,0.4,5.8,0.5,8.6,0.7c1.7,9,3.4,17.9,5.1,26.9c3.1,16.3,6.2,32.6,9.3,48.8
		c0.3,1.6,0.8,3.2,1.2,4.8c-0.1,0.1-0.2,0.2-0.3,0.3C505.5,100.6,505,100.5,505.2,99.7z"/>
	<path id="XMLID_867_" class="st99" d="M903.1,141c6.3,6.5,13.4,12.1,20.1,18.2c11.8,10.6,23.8,21,35.8,31.5
		c8.4,7.4,16.8,14.8,25.2,22.3c0.8,0.7,1.4,1.5,2.2,2.2c0.2,0.3,0.3,0.5,0.4,0.8c0,1.6-1.2,2.6-2.2,3.6c-11.7,11.8-23,24-34.6,36
		c-13.3,13.8-26.5,27.6-39.6,41.5c-5.8,6.1-12,11.8-17.4,18.3c-2.6,3.2-6.2,5.6-8.9,8.8c-1.1,0.7-2,2.3-3.5,0.6
		c-1.2-3-0.2-6,0.2-8.9c2.2-16.3,3.9-32.7,5.9-49.1c1.8-15.4,3.6-30.9,5.4-46.3c1.5-12.9,3.1-25.7,4.6-38.6
		c1.4-11.6,2.9-23.3,4-34.9c0.1-1.7,1.2-3.1,1.1-4.8c0-0.2,0.1-0.4,0.1-0.5c0.1-0.1,0.1-0.3,0.2-0.4C902.4,141,902.8,141,903.1,141z
		"/>
	<path id="XMLID_866_" class="st100" d="M749.2,209.7c15-6.7,29.9-13.4,44.9-20.1c35.4-15.9,70.9-31.7,106.3-47.5
		c0.5-0.2,1-0.4,1.5-0.5l0.1,0.3c-0.1,1.5-0.7,2.8-1.5,4c-15,22.4-30.2,44.6-45.3,66.9c-9.3,13.7-18.6,27.4-27.9,41
		c-10.2,15-20.4,29.9-30.4,44.9c-1,1.4-1.7,3.2-3.9,3.3c-1.7-0.5-2.3-2-3-3.4c-9.2-19.5-18.5-38.9-27.8-58.3
		c-4-8.4-7.9-16.7-12.1-25c-0.7-1.5-1.7-2.9-1.5-4.7C748.9,210.2,749,209.9,749.2,209.7z"/>
	<path id="XMLID_865_" class="st101" d="M749.2,209.7c0,0.2,0.1,0.4,0,0.5c-1.3,3-4,5.1-6.1,7.4c-11.3,12.6-22.6,25.2-33.9,37.8
		c-1.2,1.4-2.4,2.9-4.3,3.5c-1.7,0.3-3-0.5-4.4-1.2c-18.2-9.3-36.8-18-55.1-27.2c-12.8-6.5-25.9-12.4-38.6-19
		c-3.6-1.9-7.1-3.8-10.7-5.7c-0.4-0.4-0.6-0.9-0.3-1.5c0.3-0.3,0.6-0.5,0.9-0.7c2.3-0.6,4.6-0.4,6.8-0.3c12.2,0.7,24.5,0.8,36.7,1.3
		c13.4,0.4,26.8,0.9,40.2,1.3c11.9,0.4,23.9,0.8,35.8,1.2c9.8,0.4,19.7,0.5,29.4,2.4c1,0.1,2,0.2,2.8-0.4c0,0,0.2-0.1,0.2-0.1
		C748.8,209.2,749,209.4,749.2,209.7z"/>
	<path id="XMLID_864_" class="st102" d="M1187.5,468.9c0,0.2,0,0.4,0,0.5c-1,0.1-2.1,0.2-3.1,0.2c-41.6,0-83.3-0.1-124.9-0.1
		c-1,0-2.1-0.1-3.1-0.2c0-0.4,0-0.7,0-1.1c0-1.6,0.5-3,1.3-4.4c12.1-21.3,24.2-42.7,36.4-64c1.7-3,3.5-5.9,5.1-8.9
		c1.3-2,1.8-4.6,4.4-5.7c0.3-0.1,0.6,0,0.9,0c2.1,1.4,3.9,3.1,5.6,4.9c24.8,24.8,49.7,49.6,74.5,74.5
		C1185.8,465.9,1187.1,467.1,1187.5,468.9z"/>
	<path id="XMLID_863_" class="st103" d="M935.7,427c0-0.2,0-0.3,0-0.5c-0.2-2.1,1.6-2.5,2.8-3.2c13.9-7.8,28-15.5,42-23.3
		c11.2-6.3,22.6-12.3,33.8-18.7c1.2-0.7,2.4-1.3,3.7-1.6c0.3,0,0.7,0.1,1,0.2c0.1,0.1,0.2,0.3,0.4,0.4c0.2,0.3,0.3,0.6,0.3,1
		c-1.6,11.4-5,22.4-7.6,33.6c-3.3,14.3-6.9,28.4-10.2,42.7c-0.5,2-0.8,4.1-2.6,5.5c-0.3,0-0.7,0.1-1,0.1c-1.5,0.4-2.6-0.3-3.8-1
		c-18.5-10.6-37-21.5-55.5-32.1C937.5,429.4,936.3,428.5,935.7,427z"/>
	<path id="XMLID_862_" class="st104" d="M935.7,427c20.9,12.1,41.7,24.2,62.6,36.3c-3.1,7.2-7.1,13.8-10.8,20.7
		c-7.4,14-14.9,27.8-22.4,41.8c-4.2-14.1-8.5-28.2-12.7-42.4c-3.4-11.4-7-22.8-10.3-34.3C939.9,441.8,937.2,434.5,935.7,427z"/>
	<path id="XMLID_861_" class="st105" d="M999.3,463.2c2.4-10.3,4.7-20.6,7.2-30.9c4.1-17.1,8.2-34.2,12.3-51.4
		c2.5,0.2,2.6,2.4,3.2,4c4.8,11.6,9.6,23.2,14.4,34.9c4.1,9.9,8.2,19.7,12,29.7c0.3,0.7,0.7,1.3,1,1.9c0.6,1.1,1.1,2.3,1.1,3.6
		c0,0.3-0.2,0.6-0.4,0.8C1033.2,458.3,1016.2,460.7,999.3,463.2z"/>
	<path id="XMLID_860_" class="st106" d="M1050.1,455.8c0-0.2-0.1-0.4-0.1-0.6c0.3-1.7,1.2-3,2.2-4.4c14.6-19.1,29.1-38.1,43.6-57.2
		c0.7-1,1.4-2.1,2.6-2.6c0.6-0.3,1.4-0.9,1.7,0.4c-13.5,23.9-27.1,47.8-40.6,71.7c-1,1.8-2.1,3.5-3.2,5.3
		C1054.3,464.2,1052.2,460,1050.1,455.8z"/>
	<path id="XMLID_859_" class="st107" d="M1018.2,380.3c-9.3,5.8-19,10.7-28.5,16c-16.1,8.9-32.2,17.8-48.2,26.7
		c-2,1.1-4.2,1.9-5.8,3.5c-1.5,0-2.1,1.3-2.9,2.1c-8.5,8-16.9,16-25.4,24c-12,11.2-24,22.4-36,33.6c-0.9,0.8-1.7,1.8-2.5,2.7
		c-0.2,0-0.4,0.1-0.6,0.1l0-0.1c-0.8-0.4-1.2-1-1.1-1.8c0.8-4.5,0.6-9.1,1-13.7c1.1-13.1,2.1-26.3,3.1-39.4
		c0.7-9.7,1.4-19.5,2.1-29.2c0.7-9.3,1.4-18.6,2.2-27.9c0.6-6.5,1-13,1.5-19.6c0.8-9.6,1.2-19.3,2.5-28.8c0.1-0.4,0.2-0.8,0.4-1.2
		c0.1-0.3,0.3-0.6,0.6-0.9c2.4-0.8,4.5,0.3,6.6,1.1c13.1,5,26.2,10.1,39.3,15.2c29.3,11.4,58.7,22.9,88,34.3
		C1015.7,377.7,1018,377.7,1018.2,380.3z"/>
	<path id="XMLID_858_" class="st108" d="M137.2,502c-0.1-0.2-0.1-0.4,0-0.6c0.2-0.7,0.3-1.5,1.2-1.8c1.6,0,2.7-1.1,3.9-1.9
		c30.1-20.5,60.2-41,90.3-61.4c6.6-4.5,13.4-8.8,19.8-13.6c3.7-2.7,3.8-3,0.2-5.6c-9.7-6.9-19.5-13.8-29.3-20.8
		c-7.3-5.2-14.6-10.3-21.9-15.6c-0.9-0.7-1.9-1.3-2.6-2.3c-0.7-1-1.3-2,0.3-2.8c6.2-0.3,12.2,0.9,18.3,1.6c10,1.1,20,2.3,30,3.4
		c11.7,1.4,23.3,2.7,35,4c8.3,1,16.5,1.8,24.8,2.8c3.9,0.5,7.8,0.9,11.8,1.3c1,0.1,1.8,0.4,2.5,1.2c1.2,2-0.4,2.8-1.7,3.6
		c-3.1,1.7-6.4,3-9.6,4.4c-15.6,6.8-31.2,13.9-46.8,20.6c-3.2,1.4-4.8,3.5-5.8,6.7c-10.9,32.9-21.9,65.7-32.8,98.6
		c-1.7,5-3.4,10-5,15.1c-0.7,2.2-1.7,4.2-3.1,6.1c-0.2,0.4-0.4,0.8-0.6,1.2c-15.3-8.6-30.7-17.2-46-25.9c-10-5.6-20-11.2-30-16.9
		C138.9,503.2,138.1,502.6,137.2,502z"/>
	<path id="XMLID_857_" class="st109" d="M330.2,552c0-0.2,0-0.4,0-0.6c0.1-1.1,0.6-1.9,1.4-2.7c5.7-5.2,11.2-10.6,16.9-15.8
		c13.2-12.1,26.3-24.3,39.4-36.4c6.9-6.4,14-12.8,20.8-19.3c1.3-1.3,2.6-2.8,4.5-3.2c0.3,0,0.6,0,0.9,0.1c3.4,2,5.9,5,8.7,7.5
		c11.5,10.6,23,21.1,34.4,31.7c8.6,7.9,17.2,15.6,25.7,23.6c6.5,6.1,13,12.2,19.6,18.3c0.7,0.6,1.4,1.2,1.7,2.2c0,0.3,0,0.6-0.2,0.9
		l-0.1,0c-13.7-0.4-27.4-1-41.1-1.4c-11.4-0.3-22.8-0.8-34.2-1.2c-11.9-0.4-23.9-0.8-35.8-1.3c-11.4-0.4-22.8-0.8-34.2-1.3
		C349.1,552.8,339.6,552.8,330.2,552z"/>
	<path id="XMLID_856_" class="st110" d="M216.5,545.1c5.5-18.8,12.2-37.2,18.3-55.7c7.2-21.8,14.6-43.6,21.8-65.4
		c1-3,2.5-4.8,5.5-6.1c17.1-7.4,34-15,51-22.6c2.9-1.3,6.1-2,8.4-4.4c0.5-0.7,1.2-0.7,1.9-0.3c0.4,0.5,0.4,1,0,1.4
		c-1.7,8.5-3.4,17.1-5,25.6c-1.6,8.2-3,16.3-4.6,24.5c-0.3,1.6-1.2,2.8-2.3,4c-7.2,7.3-14.5,14.6-21.5,22.2
		c-8.1,8.7-16.3,17.2-24.5,25.8c-8.2,8.6-16.3,17.2-24.5,25.7c-7.3,7.7-14.4,15.6-21.9,23C218.3,543.7,217.4,544.4,216.5,545.1z"/>
	<path id="XMLID_855_" class="st111" d="M332.1,549.5c-0.6,0.6-1.2,1.3-1.8,1.9c-2.1-3.8-1.8-8-2.4-12.1
		c-2.9-17.7-5.4-35.4-8.1-53.1c-1.9-12.6-3.8-25.2-5.6-37.8c-0.2-1.4-1.3-4.3,2.4-3.2c4.4,0.1,8.2,2.3,12,4
		c17.5,7.7,35.2,14.7,52.6,22.5c1,0.5,2.1,0.8,3,1.6c2.1,2.1,0.5,3.8-0.6,5.5c-5.2,7.4-10.5,14.8-15.8,22.1
		c-9.1,12.6-18.2,25.2-27.1,37.8C337.9,542.5,334.7,545.8,332.1,549.5z"/>
	<path id="XMLID_854_" class="st112" d="M379.6,449.6c-0.2-0.4-0.4-0.8-0.6-1.2c-2.6-5.2-2.7-11.1-3.7-16.7
		c-3.6-21.1-6.9-42.2-10.5-63.3c-0.3-1.9-1.3-4.1,0.4-6c1.5-1,3-0.5,4.5,0c24.5,8,48.8,16.6,73.2,24.6c1.2,0.4,2.4,0.8,3.1,2
		c0.7,2.1-0.9,3.3-2.2,4.5c-4.8,4.4-9.7,8.7-14.6,13.1c-9.2,8.3-18.4,16.5-27.6,24.8c-6.5,5.9-13.1,11.6-19.5,17.5
		c-0.5,0.5-1.1,0.9-1.9,1.1c-0.2,0-0.3,0-0.5,0C379.8,449.7,379.7,449.6,379.6,449.6z"/>
	<path id="XMLID_853_" class="st113" d="M365.9,362.6c-0.8,0.7-0.5,1.4-0.4,2.3c4.4,26.6,8.8,53.1,13.2,79.7
		c0.2,1.2,0.1,2.5,0.1,3.7c-5.2-4.9-10.2-10-15-15.3c-7.4-8-15.1-15.6-22.7-23.5c-5-5.1-9.9-10.3-14.9-15.5c-0.8-0.9-1.6-2-3-2.1
		c0-0.4,0-0.8,0-1.1c0-0.5,0-0.9,0.3-1.3c4.1-3.8,9-6.5,13.6-9.7c8.2-5.8,16.5-11.4,24.8-17.1c0.7-0.5,1.5-0.9,2.3-1.2
		c0.3-0.1,0.6,0,0.9,0C365.7,361.8,366,362.1,365.9,362.6z"/>
	<path id="XMLID_852_" class="st114" d="M383.9,474c-8.5-2.9-16.6-7-24.9-10.5c-12.5-5.1-24.8-10.5-37.2-15.8
		c-1.8-0.8-3.6-1.6-5.3-2.5c3.8-1.4,7.5,0.1,11.3,0.2c6.4,0.2,12.7,1.1,19.1,1.6c8.8,0.8,17.7,1.6,26.5,2.3c2.1,0.2,4.1,0.1,6.2,0.2
		l0,0c1.4,1.3,1.9,2.9,2.3,4.7c1.2,5.4,2.6,10.8,3.5,16.3C385.5,471.8,386.1,473.5,383.9,474z"/>
	<path id="XMLID_851_" class="st67" d="M99.7,627c-3.8-1.4-5.7-4.5-6.9-8.1C95.6,621.1,97.8,623.9,99.7,627z"/>
	<path id="XMLID_850_" class="st67" d="M85.9,610.7c-3.8-1.4-5.7-4.5-6.9-8.1C81.8,604.9,84,607.7,85.9,610.7z"/>
	<path id="XMLID_849_" class="st67" d="M92.8,618.9c-3.8-1.4-5.7-4.5-6.9-8.1C88.7,613,90.9,615.8,92.8,618.9z"/>
	<path id="XMLID_848_" class="st67" d="M106.5,635.1c-2.5-0.4-3.7-1.9-3.8-4.4C104.5,631.8,105.7,633.3,106.5,635.1z"/>
	<path id="XMLID_847_" class="st67" d="M113.4,643.2c-2.5-0.4-3.7-1.9-3.8-4.4C111.3,640,112.6,641.4,113.4,643.2z"/>
	<path id="XMLID_846_" class="st67" d="M102.8,630.7c-2.6,0-3-1.8-3.1-3.8C101.2,627.9,102.1,629.2,102.8,630.7z"/>
	<path id="XMLID_845_" class="st67" d="M109.7,638.9c-2.6,0-3-1.8-3.1-3.8C108,636,109,637.3,109.7,638.9z"/>
	<path id="XMLID_844_" class="st67" d="M116.5,647c-2.6,0-3-1.8-3.1-3.8C114.9,644.1,115.8,645.4,116.5,647z"/>
	<path id="XMLID_843_" class="st115" d="M986.3,215.9c0-0.2,0-0.5,0.1-0.7c0.3,0,0.7,0,1,0.1c1.1,0,1.9,0.6,2.7,1.3
		c14.7,13.2,29.5,26.4,44.4,39.5c1.6,1.4,2.9,3.2,4.4,4.8c6.3,8.4,12,17.2,17.9,25.8c13.7,19.7,27,39.6,40.8,59.3
		c0.2,0.3,0.3,0.5,0.4,0.9c0.1,0.7,0,1.3-0.6,1.8c-7.8,0.9-14.9,4.5-22.2,7c-9.2,3.1-18.4,6.5-27.6,9.7c-5.5,1.9-10.8,4.2-16.5,5.7
		c-2.3,0.5-3.4,2.5-5,3.9c-1.5,1.4-2.9,2.9-4.4,4.3c-0.8,0.8-1.7,1.6-3,1.1l0,0c-2.3-2.3-2.1-5.4-2.4-8.2
		c-2.1-17.1-4.2-34.2-6.2-51.3c-1.7-14-3.3-28-5.1-42c0-0.5-0.1-1-0.2-1.5c-1.9-6.7-4.1-13.3-6.2-19.9c-3.8-12.2-7.6-24.3-11.4-36.5
		C986.7,219.2,986.5,217.5,986.3,215.9z"/>
	<path id="XMLID_842_" class="st116" d="M1038.1,261.5c-4.8-5.8-11-10.1-16.3-15.2c-4-3.9-8.5-7.3-12.6-11
		c-6.6-5.9-13.1-11.8-19.6-17.7c-0.8-0.7-1.4-1.5-2.1-2.3c0.2-0.4,0.5-0.8,0.7-1.1c5.3-2.2,9.8-5.7,14.7-8.4
		c5.3-3,10.4-6.3,15.6-9.5c2.1,0.5,2.5,2.3,3,4c4.7,15.9,9.5,31.7,14.2,47.6c0.9,3,1.8,6,2.7,9c0.4,1.3,0.8,2.6,0.5,4
		C1038.6,261,1038.4,261.3,1038.1,261.5z"/>
	<path id="XMLID_841_" class="st117" d="M1038.1,261.5c0-0.2,0.1-0.5,0.1-0.7c0.5-1.7,1.7-2.8,3.1-3.8
		c23.4-17.7,46.7-35.5,70.1-53.3c11.1-8.5,22.2-16.9,33.2-25.4c2.5-1.9,4.9-3.8,7.9-4.9c0.2-0.2,0.4-0.4,0.6-0.7
		c0.4,0,0.8,0.1,1.2,0.1c4.5-0.5,8.8-0.5,12.5,2.6c1,3,3.9,1.7,5.7,2.1c2.6,0.6,4.5,1.1,5.7,3.7c5.5,13,11.1,26,16.8,39
		c4.9,11.2,9.3,22.7,15.7,33.2c2.4,3.9,4.1,8.1,6.7,11.9c-0.2,0.2-0.4,0.5-0.5,0.7c-0.3,1.9-1.9,2.6-3.3,3.5
		c-9.3,6.3-18.6,12.5-27.9,18.8c-27.9,18.7-55.6,37.6-83.6,56.2c-1.5,1-2.9,2.1-4.8,2.1c-1.4-0.1-1.7-1.4-2.3-2.3
		c-18.7-27.2-37.3-54.4-56-81.5C1038.8,262.2,1038.4,261.9,1038.1,261.5z"/>
	<path id="XMLID_840_" class="st118" d="M1152.5,173.4c-4.3,4.4-9.5,7.7-14.3,11.4c-32,24.5-64.1,48.9-96.2,73.3
		c-1.2,0.9-2.5,1.9-3.7,2.8c-6.2-20.6-12.4-41.2-18.6-61.9c-0.3-1-0.5-2-1.3-2.8c21.3-3.7,42.7-7.3,64-11c11.3-1.9,22.6-4,34-5.9
		C1128.3,177.3,1140.4,175.3,1152.5,173.4z"/>
	<path id="XMLID_839_" class="st119" d="M612,514.5c-0.2,0-0.3,0-0.5,0c-0.1-0.1-0.2-0.2-0.4-0.3c-0.7-1.8,0.4-3.3,1.1-4.7
		c7.2-13.1,14.4-26.3,21.6-39.4c13.5-24.6,27.1-49.2,40.6-73.9c10.8-19.6,21.6-39.2,32.3-58.8c1.1-2,2.3-3.9,3.6-5.8
		c0.6-0.4,1.2-0.6,1.9-0.3c1.4,1,1.7,2.5,2.1,4.1c9.2,43.1,18.6,86.1,27.8,129.2c2.3,10.6,4.6,21.1,6.8,31.7c0.4,1.9,0.2,4,1.2,5.8
		c0.2,1-0.2,1.8-0.8,2.6c0,0.2,0,0.3,0,0.5c-0.2,0.2-0.4,0.5-0.6,0.7c-3.2,1.2-6.6,0.9-9.9,1.1c-7.7,0.4-15.3,0.9-23,1.5
		c-13.6,1.1-27.3,1.7-40.9,2.9c-7.4,0.7-14.9,0.9-22.3,1.4c-11.3,0.8-22.5,1.4-33.8,2.4C616.6,515.3,614.3,515.3,612,514.5z"/>
	<path id="XMLID_838_" class="st120" d="M749.5,504.6c0-0.9,0-1.7-0.1-2.6c-0.4-5.8,1.5-11.3,2.7-16.9
		c8.2-37.8,16.3-75.6,24.5-113.4c4.7-21.5,9.3-43.1,14-64.6c0.4-1.7,0.6-3.5,2.3-4.6c0.3-0.1,0.7-0.1,1,0c1.6,1.4,2.3,3.4,3.1,5.3
		c17.4,43.5,34.9,87,52.4,130.5c5.6,14,11.2,28,16.9,42c0.9,2.3,1.7,4.7,1.3,7.2c0.2,0.4,0.4,0.8,0.5,1.2
		C828.6,494.1,789.1,499.4,749.5,504.6z"/>
	<path id="XMLID_837_" class="st121" d="M612,514.5c2.9-1.4,6.1-0.8,9.2-1.1c7.7-0.8,15.5-0.9,23.3-1.4c10.8-0.7,21.7-1.6,32.5-2.4
		c7.1-0.5,14.3-0.8,21.4-1.3c10.9-0.8,21.9-1.6,32.8-2.4c5.1-0.3,10.1-0.5,15.2-0.7c0.9,0,1.9-0.1,2.6,0.7
		c-5.5,11.9-10.9,23.8-16.4,35.6c-11,23.7-22.1,47.4-33.1,71.1c-4.1-1.8-6-5.8-8.9-8.9c-5.6-5.9-10.7-12.1-16-18.2
		c-7.2-8.3-14.5-16.5-21.8-24.8c-5.3-6-10.6-11.9-15.9-17.9c-7.2-8.2-14.3-16.4-21.5-24.6C614.2,517,613.1,515.8,612,514.5z"/>
	<path id="XMLID_836_" class="st122" d="M545.8,651.4c0-0.3,0-0.6-0.1-0.9c-0.3-2,0.6-3.6,1.4-5.3c7.7-15.9,15.3-31.9,22.9-47.9
		c12.4-26,24.8-52.1,37.2-78.1c0.8-1.7,1.6-3.4,3-4.7c0.3-0.2,0.6-0.2,0.9-0.1l0.1,0.1c-0.1,6.9,1.4,13.6,2,20.4
		c0.8,8.2,1.9,16.4,2.9,24.7c0.9,7.9,1.9,15.8,2.8,23.7c0.9,7.9,1.9,15.8,2.8,23.7c1.1,9.8,2.4,19.5,3.4,29.3
		c0.9,9,2.5,17.8,2.9,26.9c-8.2-1.1-16.4-2.2-24.6-3.3c-15.4-2.2-30.8-4.4-46.2-6.6C553.6,652.7,549.7,652,545.8,651.4z"/>
	<path id="XMLID_835_" class="st123" d="M578.3,703.2c-9-7.7-18-15.3-27-23c-9-7.7-17.9-15.4-26.8-23.2c-1.1-0.9-2-2.1-3-3.1
		c8.1-0.7,16.2-1.5,24.3-2.2c9.2,14.4,18.5,28.8,27.7,43.3C575.1,697.7,577.3,700.1,578.3,703.2z"/>
	<path id="XMLID_834_" class="st124" d="M588.2,73.4c1.9,0,3.8,0,5.6,0c15.4,0.4,30.7,1.5,46,2.4c9.6,0.6,19.3,0.9,28.9,1.5
		c14.4,0.8,28.8,1.7,43.2,2.5c-4.9,4.9-10.6,8.9-16,13.4c-11.5,9.5-23.2,18.8-34.8,28.2c-12.7,10.3-25.5,20.6-38.2,30.9
		c-10.4,8.4-20.8,16.9-31.2,25.3c-1.4,1.1-2.8,2.2-4.2,3.3c-1.4-1-1.3-2.5-1.3-4c0-15.7-0.5-31.4,0.1-47.1
		c0.7-16.7,0.2-33.4,0.5-50.1C586.9,77.5,587,75.4,588.2,73.4z"/>
	<path id="XMLID_833_" class="st125" d="M588.2,73.4c0,17,0.5,34.1-0.1,51.1c-0.7,18.8-0.2,37.6-0.5,56.4c0,0.2,0,0.4,0,0.6
		c2.4,3.3,3.2,7.4,4.7,11.1c1.1,2.7,2.1,5.4,3.1,8.1c0.5,1.2,1.1,2.5,0.4,3.9l-0.1,0.2c-0.2,0.3-0.5,0.4-0.9,0.5
		c-2.8,0.2-5.3-1-7.8-1.8c-11.8-3.7-23.7-7.2-35.5-10.9c-11.1-3.5-22.2-7-33.4-10.1c-4.6-1.3-7.7-3.4-8-8.5
		c-0.8-14.7-2-29.4-3.1-44.1c-0.7-8.8-1.1-17.6-1.9-26.4c-0.1-1.3,0.2-2.5,1.2-3.4l0,0c0.2,0,0.4,0,0.7,0c1.4,0.1,2.2,1,3.2,1.8
		c10,8.7,20.1,17.4,30,26.2c0.1,0.1,0.4,0.1,0.6,0.2c4.8-4.4,8.6-9.8,12.9-14.7c6.5-7.4,12.7-15,19-22.5c4.2-5,8.4-10,12.6-15
		C586.2,75.2,587,74.1,588.2,73.4z"/>
	<path id="XMLID_832_" class="st126" d="M595.9,204.6c-2.8-7.2-5.7-14.5-8.5-21.7c-0.2-0.6-0.1-1,0.3-1.4c10.5,1.9,21,3.8,31.6,5.6
		c17.3,3,34.5,6,51.8,9c17.7,3.1,35.4,6,53,9.2c7.2,1.3,14.6,1.9,21.6,4.2c-11.5-0.3-23.1-0.7-34.6-1c-7.4-0.2-14.7-0.5-22.1-0.8
		c-14.5-0.4-29.1-0.7-43.6-1.3c-12.5-0.5-24.9-1-37.4-1.2C603.9,205.1,599.9,204.8,595.9,204.6z"/>
	<path id="XMLID_831_" class="st127" d="M119.1,403.4c-3.5-2.9-5.5-7-8.1-10.6c-19.5-27-39-54-58.5-81
		c-10.7-14.9-21.5-29.8-32.3-44.7c0.9-1.4,2.3-1.6,3.8-1.9c16.4-2.6,32.8-4.9,49.1-7.4c16.1-2.4,32.2-4.7,48.2-7.1
		c14.9-2.2,29.7-4.4,44.5-6.6c10.2-1.5,20.5-3,30.7-4.5c1.9-0.3,3.5-1.3,5.4-1.2c2,1,1,2.5,0.5,3.7c-1.4,3.5-3.1,6.8-4.9,10.1
		c-7.1,12.9-13.5,26.3-20.2,39.5c-9.8,19.2-19.5,38.4-29.3,57.6c-8.6,17-17.1,34-26,50.9C121.5,401.5,121.1,403.2,119.1,403.4z"/>
	<path id="XMLID_830_" class="st128" d="M136.7,500.9c-1.4,0.6-2.1-0.6-3-1.2c-20.5-13.5-40.9-27.1-61.4-40.7
		c-22.6-15-45.2-29.9-67.9-44.9c-0.6-0.4-1.1-0.9-1.7-1.4c18.4-1.4,36.8-2.9,55.2-4.3c12.8-1,25.6-1.8,38.5-2.7
		c7.5-0.6,15.1-1.3,22.6-1.9c0.2,0.1,0.3,0.2,0.5,0.3c1.1,1,1.3,2.3,1.5,3.7c5.3,28.1,10.5,56.2,15.6,84.3
		C137,495,138.6,497.9,136.7,500.9z"/>
	<path id="XMLID_829_" class="st129" d="M119.1,403.4c6.2-12,12.4-24,18.5-36c13.2-26,26.4-52.1,39.7-78.1
		c7.9-15.5,15.9-31.1,23.8-46.6c0.6-1.2,1.1-2.5,1.6-3.7c0.3-1.2,0.7-2,1.8-0.6c0.8,6.1,0,12.2-0.2,18.3c0,1.6-0.3,3.3-0.3,5
		c0.1,11.9-1.1,23.6-1.4,35.5c-0.2,9.1-0.6,18.3-1.2,27.4c-0.8,14.6-1.4,29.2-2,43.9c-0.1,2.4-0.1,5-1.1,7.3c-0.9,2.1-2.7,3-4.7,3.7
		c-23.1,8-46.2,16.1-69.3,24.1c-1.7,0.6-3.4,1.7-5.4,0.6l-0.1-0.2C119,403.7,119.1,403.6,119.1,403.4z"/>
	<path id="XMLID_828_" class="st130" d="M33.5,226.4c0.2,0,0.4,0,0.6,0c0.3-0.2,0.7-0.3,1.1-0.3c8.9-0.6,17.8,0.5,26.7,1.1
		c11.5,0.7,23,1.2,34.4,2.3c3.7,0.3,7.5,0.5,11.2,0.6c11.9,0.6,23.8,1.5,35.7,2.1c13.3,0.8,26.7,1.7,40,2.5
		c5.4,0.3,10.8,0.4,16.1,1.1c0.9,0.1,1.9,0.2,2.6,0.9c0.7,1.8-0.9,1.7-1.8,2c-5.3,1.5-10.8,1.9-16.2,2.7
		c-10.5,1.7-21.1,3.1-31.7,4.7c-12.1,1.8-24.2,3.6-36.3,5.4c-10.4,1.5-20.9,3.1-31.3,4.7c-12.1,1.8-24.2,3.6-36.3,5.3
		c-8.6,1.2-17.2,2.6-25.8,3.8c-1.3,0.2-2.5,0.3-3.5-0.7c0.2-3.9,2.3-7.2,3.7-10.7c3.3-8.5,7-17,10.5-25.4
		C33.4,227.9,33.4,227.1,33.5,226.4z"/>
	<path id="XMLID_827_" class="st131" d="M19,264.6c18.5-2.7,37.1-5.4,55.6-8.2c16.1-2.4,32.1-4.9,48.2-7.3
		c17.6-2.6,35.3-5.1,52.9-7.7c8.8-1.3,17.6-2.8,26.3-4.2c0.3-0.6,0.8-0.7,1.4-0.6c0.2,0.1,0.5,0.3,0.7,0.5c0,0.1,0,0.3,0,0.4
		c-0.1,0.1-0.2,0.1-0.4,0.2c-0.3,0.4-0.7,0.9-1,1.3c-8.4,3.3-17.4,3.4-26.1,4.9c-10.5,1.8-21.1,3.1-31.6,4.7
		c-12.3,1.8-24.6,3.6-36.9,5.4c-10.3,1.5-20.7,3.1-31,4.7c-12.1,1.8-24.2,3.5-36.2,5.3c-6.9,1-13.7,2.1-20.6,3.1
		C19.9,266.3,19.1,265.7,19,264.6z"/>
	<path id="XMLID_826_" class="st132" d="M34.7,226.5c-0.2-0.1-0.4-0.1-0.6-0.2c0.1-12.5,1.1-24.9,1.4-37.4
		c0.2-10.1,0.8-20.1,1.2-30.2c0.4-10.8,0.8-21.6,1.3-32.4c0.4-10,0.8-19.9,1.2-29.9c0.4-10.9,1-21.8,1.3-32.7
		c0.1-2.9,0.5-5.8,0.5-8.7c8.5,0,17.1,0.4,25.6-0.1c10.4-0.7,20.8,0.1,31.2-0.6c9.7-0.7,19.3-0.2,29-0.5c1,0,2.1,0.2,3-0.6
		c0.4,0,0.8,0.1,1.2,0.1c1.7,6.2,4.7,12,7.2,17.9c4.8,11.5,9.8,22.9,14.8,34.3c5.7,13,11.4,26,17.1,39.1c2.7,6.2,5.3,12.4,7.9,18.6
		c0.1,2-1.6,2.2-2.8,2.8c-9.8,4.5-19.8,8.7-29.7,13.1c-16.2,7.1-32.4,14.2-48.6,21.3c-19.1,8.3-38,16.8-57.2,25
		C38,226.3,36.4,226.6,34.7,226.5z"/>
	<path id="XMLID_825_" class="st133" d="M611,514.4c-9.2,19.2-18.3,38.4-27.5,57.6c-11.6,24.4-23.3,48.9-34.9,73.3
		c-0.8,1.8-1.9,3.4-2.8,5.1c-4-7.6-7.2-15.6-10.7-23.5c-10.2-22.9-20.4-45.8-30.5-68.7c-0.2-0.6,0.1-0.9,0.5-1.2
		c13.9-6.3,28.1-11.9,42.2-17.8c17.1-7.1,34.1-14.3,51.3-21.3c3.8-1.5,7.5-3.7,11.7-4.1C610.5,514,610.8,514.1,611,514.4z"/>
	<path id="XMLID_824_" class="st134" d="M505.1,557.7c-0.2,0.2-0.4,0.4-0.6,0.6c-0.2,0-0.4,0-0.5,0.1c-0.1-0.2-0.1-0.5-0.2-0.7
		c-1.5-2-2.4-4.3-3.1-6.7c-4.7-18.1-9.6-36.1-14-54.3c-3.5-14.4-7.7-28.7-10.8-43.2c0.1-0.6,0.4-1,0.8-1.3c1-0.5,2-0.3,2.8,0.5
		c0.5,1.2,1.3,2,2.2,2.9c13.9,13.9,27.8,27.9,41.8,41.7c3,3,3.6,5.7,2,9.7c-6.3,15.6-12,31.5-18.4,47.1c-0.4,1.1-0.8,2.1-1.6,3
		C505.6,557.2,505.4,557.5,505.1,557.7z"/>
	<path id="XMLID_823_" class="st135" d="M1166.9,175.3c-4.1-1.1-8.5-1-12.5-2.6c3.8-4.8,8.9-8.1,13.3-12.1
		c6.9-6.3,14.1-12.2,21.2-18.3c7.5-6.4,14.9-12.9,22.3-19.3c7-6.1,14-12.3,21.1-18.4c0.7-0.6,1.4-1.2,2.1-1.8
		c11.2,9.2,22.4,18.4,33.6,27.7c0.8,0.7,1.4,1.5,2,2.3c-6.7,4-13.9,7.1-20.8,10.6c-8.9,4.4-18,8.6-27,13c-13.4,6.5-26.8,13-40,19.7
		c-3.2,1.6-6.1,0.5-9.1,0.2C1171,176.1,1168.9,175.7,1166.9,175.3z"/>
	<path id="XMLID_822_" class="st136" d="M354.1,44.6c0.4,0,0.7,0.1,1.1,0.1c1.6,1,2.8,2.4,3.9,4c17.4,26.3,35.2,52.4,52.6,78.7
		c23.1,34.8,46.5,69.3,69.6,104.1c1,1.6,2.7,3,1.9,5.3c-0.3,0.3-0.6,0.5-0.9,0.6c-2.1,0.6-4.3,0.5-6.5,0.5c-42.5,0-85-0.6-127.4,0.2
		c-45.7,0.8-91.4,0.1-137.1,0.5c-2.5,0-5,0.2-7.2-1.3l-0.1,0c-0.1-0.3-0.1-0.5,0.2-0.6c4.9-5.1,8.8-11,13.2-16.5
		c12.4-15.8,24.9-31.6,37.2-47.5c8.7-11.1,17.3-22.3,26-33.4c12.6-16.1,25.1-32.2,37.7-48.3C330.2,75.3,342.1,60,354.1,44.6z"/>
	<path id="XMLID_821_" class="st137" d="M204.1,236.5c-0.1,0.2-0.1,0.4-0.2,0.6c-0.6,0-1.2,0.1-1.8,0.1c-15.4-0.9-30.9-1.9-46.3-2.8
		c-20-1.2-40-2.5-60-3.8c-13.1-0.8-26.1-1.6-39.2-2.5c-7.3-0.5-14.7-1.1-22-1.6c13.5-6,26.9-12,40.4-17.9
		c12.8-5.6,25.7-11.1,38.6-16.7c12.8-5.6,25.5-11.4,38.3-17.1c8-3.5,16-6.9,24-10.3c0.7-0.3,1.2-0.7,1.9-1.1c3.6,2.5,7.1,5,10.7,7.4
		c5,20.9,9.9,41.8,14.9,62.6C203.5,234.5,203.8,235.5,204.1,236.5z"/>
	<path id="XMLID_820_" class="st138" d="M1097.4,346.5c5-4.1,10.5-7.3,15.8-10.9c24.1-16.3,48.2-32.5,72.4-48.7
		c10.4-7,20.9-14,31.3-21c1.2,0.7,1.6,1.8,1.8,3.1c-2.2-0.6-1.9,1.1-1.8,2.2c0.1,4.1,0.6,8.3,0.5,12.4c-0.2,12,0.6,24.1,0.9,36.1
		c0.2,7.8-0.2,15.6,0.5,23.3c1,9.9-0.2,19.9,1.1,29.8c0.2,1.5,0.4,3.3-1.8,3.7c-2.6,1.3-5.1,0.1-7.5-0.4c-7.9-1.8-15.7-4-23.6-5.8
		c-28.5-6.6-56.7-14.2-85-21.1c-1.8-0.4-3.4-0.9-4.5-2.5L1097.4,346.5z"/>
	<path id="XMLID_819_" class="st139" d="M1187.5,468.9c-0.8-0.7-1.6-1.3-2.3-2c-26.2-26.2-52.5-52.5-78.7-78.7
		c-0.7-0.7-1.3-1.6-2-2.4c1.1-1.2,2.3-0.7,3.5-0.1c5.4,2.1,10.9,3.8,16.7,4.2c2.5,0.2,5,0.7,7.2,1.6c6,2.3,12.3,2.5,18.4,3.9
		c2.5,0.6,4.9,1.6,7.4,2.1c5.8,1.3,11.8,1.6,17.5,3.8c4.7,1.8,9.9,1.8,14.9,2.9c2.9,0.6,5.6,2.3,8.7,2.2c1,0,2,0.2,3.1-0.1
		c0.8,0,1.4,0.2,1.9,0.8c-3.1,11.9-6.2,23.8-9.3,35.8C1192.1,451.5,1189.8,460.2,1187.5,468.9z"/>
	<path id="XMLID_818_" class="st140" d="M1203.7,407.1c-0.6,0-1.3,0-1.9,0c-4.1,0.1-7.9-1.5-11.8-2.3c-11.9-2.4-23.7-5.1-35.5-7.7
		c-13.2-2.9-26.5-5.8-39.7-8.7c-1.1-0.2-2.3-0.4-3.2-1.2c-1.3-1.8,0-2.7,1.3-3.5c5.8-1.1,11.8-1.1,17.7-1.6
		c11.7-0.9,23.4-1.7,35.1-2.4c7.4-0.5,14.7-1,22.1-1.5c7.5-0.5,14.9-0.8,22.4-1.6c2.7-0.3,5.4,0.3,8,0.5c0.9,0.1,1.8-0.1,2.5,0.7
		C1215,387.5,1209.4,397.3,1203.7,407.1z"/>
	<path id="XMLID_817_" class="st141" d="M1218.1,377c-3.2,1.1-6.6,0.9-9.9,1.1c-10.5,0.9-21.1,1.3-31.6,2c-13.7,0.9-27.5,2.1-41.2,3
		c-7.6,0.5-15.3,0.9-23,1.3c-2.6,2-5.5,1-8.3,0.9c-0.4,0-0.7-0.2-1-0.5c-2.3-3.5-2.1-7.7-2.9-11.6c-1.4-7.1-2.6-14.2-3.8-21.4
		c-0.2-1.4-0.4-2.7,0.7-3.8c0-0.5,0.1-1.1,0.1-1.6c20.2,5,40.4,9.6,60.5,15c19.4,5.2,39,9.2,58.4,14.5c0.6,0.2,1.2,0.2,1.8,0.3
		C1218.1,376.6,1218.1,376.8,1218.1,377z"/>
	<path id="XMLID_816_" class="st142" d="M540.8,128.4c-0.5,1.7-1.3,0.7-2,0.1c-8.6-7.5-17.1-15-25.7-22.5c-2.1-1.8-4.5-3.3-6-5.8
		c9.5-6.2,18.9-12.5,28.4-18.6c10.1-6.6,20.2-13.1,30.3-19.6c0.6-0.4,1.3-0.7,1.9-1c-2.2,7.1-5.5,13.8-8.2,20.7
		c-4.3,10.8-8.7,21.5-13,32.2C544.5,118.7,542.2,123.4,540.8,128.4z"/>
	<path id="XMLID_815_" class="st143" d="M483.2,236c-6.2-9.2-12.5-18.3-18.6-27.5c-25.7-38.4-51.3-76.8-77-115.3
		c-10.3-15.4-20.6-30.8-30.9-46.1c-0.5-0.8-0.9-1.6-1.4-2.4c8.6,2.5,16.8,6,25.1,9c41.1,15.2,82.2,30.4,123.3,45.7
		c0.5,0.2,1,0.2,1.5,0.4c0.4,0.2,0.8,0.4,1.2,0.5c1,13.4,2,26.9,2.9,40.3c0.5,7.1,1,14.3,1.4,21.4c0.3,4.2,0.5,8.5,0.8,12.7
		c1,4.7-0.2,8.8-2.4,13c-7.7,14.8-15,29.9-22.6,44.8C485.9,234,485.5,236,483.2,236z"/>
	<path id="XMLID_814_" class="st144" d="M119.1,404.1c12-4.2,24.1-8.4,36.1-12.6c13.4-4.7,26.8-9.3,40.2-14c0.8-0.3,1.5-0.7,2.2-1.1
		c0.1,0.1,0.2,0.2,0.3,0.3c0.6,1.6-0.2,2.8-0.8,4.1c-10.5,21.2-20.5,42.5-30.9,63.8c-8.4,17.2-16.6,34.5-25,51.7
		c-0.7,1.5-1.2,3.2-3,3.8c-0.4,0.4-0.8,0.8-1.2,1.3c-0.2-0.2-0.3-0.4-0.5-0.5c-2.4-13.5-4.8-27-7.3-40.4
		c-3.4-18.5-6.8-36.9-10.2-55.4C119,404.7,119.1,404.4,119.1,404.1z"/>
	<path id="XMLID_813_" class="st145" d="M793.1,301.5c1.4-0.9,2-2.4,2.8-3.6c14.7-21.7,29.4-43.3,44-65
		c12.1-17.8,24.1-35.6,36.2-53.4c8.6-12.6,17.2-25.2,25.8-37.8c1.3,2.9,0,5.8-0.3,8.5c-1.8,16.5-4,32.9-6,49.4
		c-1.8,15.3-3.4,30.7-5.2,46c-1.5,12.9-3.3,25.7-4.8,38.6c-1.4,11.8-2.6,23.7-3.9,35.5c-0.2,1.9-0.8,3.7-0.6,5.6
		c0.2,0.1,0.3,0.3,0.2,0.6c-0.2,0.3-0.6,0.4-0.8,0.6l0,0c-1.2,1-2.5,0.6-3.9,0.2c-12.3-3.2-24.4-6.8-36.6-10.1
		c-14.3-3.9-28.6-8.1-42.9-11.9c-1.4-0.4-2.5-0.9-3.4-2l-0.1,0c-0.3-0.2-0.6-0.3-0.8-0.6C792.9,301.9,793,301.7,793.1,301.5z"/>
	<path id="XMLID_812_" class="st146" d="M986.3,215.9c1.4,0.8,1.5,2.4,1.9,3.8c5.6,18,11.2,36,16.8,54.1c0.3,1.1,0.4,2.2,0.6,3.3
		c-4.5-0.1-8.4,2-12.4,3.6c-27.4,10.8-54.8,21.5-82.2,32.3c-8.2,3.3-16.7,5.9-24.4,10.3c-0.9,0.5-1.9,1-2.9,0
		c3.5-4.4,7.7-8.1,11.5-12.3c7.5-8.2,15.5-15.9,23.1-24c9-9.6,18.2-19.1,27.3-28.6c8.5-8.9,17.1-17.9,25.5-26.8
		C976.3,226.4,981.5,221.3,986.3,215.9z"/>
	<path id="XMLID_811_" class="st147" d="M883.8,323.3c6.6-3.6,13.7-6.4,20.7-9.1c30.6-12,61.3-24,91.9-36c3-1.2,5.8-3.7,9.3-1.1
		c0.2,0.2,0.4,0.4,0.6,0.6c-1,1.1-2.3,1.7-3.7,2.2c-33.6,13.3-67.3,26.5-100.9,39.7c-5.3,2.1-10.6,4.3-16,6.3c-1.5,0.5-3,1.1-4.4,0
		c0-0.2,0-0.4,0-0.6C882.1,324.6,883,324,883.8,323.3z"/>
	<path id="XMLID_810_" class="st148" d="M793.1,301.5c0,0.2,0.1,0.4,0.1,0.6c-0.4,0.7-1,1.1-1.7,1.5c-1.9,0-3.8,0.4-5.3,1.6
		c-0.3,0.1-0.5,0.2-0.8,0.3c-3.5,0.8-7.1,1.3-9.9,3.7c-0.7,0.4-1.4,0.7-2.2,0.8c-2.6-0.3-4.7,1-6.5,2.6c-4.3,2.4-9,3.6-13.6,5.2
		c-12,4.3-24,8.5-36.1,12.8c-1.4,0.5-2.9,1.2-4.5,0.9c-0.3-0.1-0.6-0.3-0.9-0.5c-0.7-0.4-0.9-1.1-0.9-1.9
		c-1.1-5.5-1.3-11.1-1.9-16.6c-1.1-10.4-2-20.8-3-31.2c-0.7-6.7-1.3-13.4-1.8-20.1c-0.1-1.1,0.3-2,1-2.8c6.7-7.4,13.3-14.7,20-22.1
		c7.1-7.9,14.2-15.9,21.3-23.8c0.8-0.9,1.6-2,2.9-2.2c8,16.7,16,33.3,24,50c6.2,13.1,12.4,26.2,18.7,39.2
		C792.3,300.2,792.7,300.8,793.1,301.5z"/>
	<path id="XMLID_809_" class="st149" d="M711.3,329.6c0.2,0.4,0.4,0.9,0.6,1.3c-1.7,1-3.4,0.6-5.1,0.1
		c-46.5-12.9-93-25.8-139.4-38.7c-18.6-5.2-37.2-10.4-55.9-15.4c-2.1-0.6-4.3-0.9-6.1-2.3c-1.1-1.2-0.6-2.3,0.3-3.3
		c0.8-0.9,1.7-1.5,2.6-2.2c27.2-20.5,54.4-40.9,81.5-61.5c1.7-1.3,3.4-2.5,5.4-2.9c0.2,0,0.4,0,0.6,0.1c0.3,0.2,0.5,0.4,0.8,0.6
		c5.5,3.2,9.2,8.4,13.4,13c9.4,10,18.7,20.1,27.9,30.3c10.6,11.7,21.4,23.3,32.1,34.9c8.3,9.1,16.6,18.1,25,27.1
		c5,5.3,9.8,10.8,14.8,16.1C710.5,327.5,711.2,328.4,711.3,329.6z"/>
	<path id="XMLID_808_" class="st150" d="M711.3,329.6c-5.1-4-9-9.2-13.3-13.9c-3.1-3.4-6.2-6.6-9.3-10.1
		c-8.5-9.6-17.5-18.9-26.2-28.3c-9.8-10.6-19.5-21.2-29.3-31.8c-9.6-10.4-19.3-20.8-28.8-31.4c-2.6-2.9-5.6-5.5-7.9-8.7
		c1.9,0.3,3.4,1.4,5.1,2.3c15.3,7.5,30.5,15,45.8,22.6c18.4,9.1,36.9,18.2,55.3,27.3c0.7,0.4,1.5,0.6,2.3,0.8
		c1,10.1,2.1,20.2,3,30.3c0.7,7.7,1.3,15.5,2,23.2c0.5,5.3,1,10.5,1.5,15.8C711.7,328.3,712,329,711.3,329.6z"/>
	<path id="XMLID_807_" class="st151" d="M1100.1,391.3c-1.4-0.4-1.8,0.9-2.3,1.6c-14,18.4-27.8,36.8-41.8,55.1
		c-1.9,2.4-3.4,5.2-5.9,7.1c-0.6-1-1.1-2-1.2-3.2c-5.1-14.9-8.3-30.2-11.9-45.4c-1.9-8-3.8-16-5.9-23.9c-0.7-2.7-1.3-5.5-1.8-8.2
		c-0.3-1.5-0.6-3.2,1.4-4c1.8-0.7,3.7-0.4,5.5,0c13.4,2.6,26.7,5.5,40.1,7.9c7.5,1.3,14.9,2.8,22.3,4.3c1.9,0.4,4,0.5,5.1,2.5
		l0.2-0.1c0.2,0.1,0.2,0.3,0.2,0.4c-0.1,0.1-0.1,0.2-0.2,0.2C1102,387.2,1101.6,389.6,1100.1,391.3z"/>
	<path id="XMLID_806_" class="st152" d="M1103.8,385.8c0-0.2,0-0.4,0-0.6c2.9,0.4,5.7-0.6,8.6-0.6c-0.4,0.8-1.3,1.4-0.6,2.5
		c-1.6,0.8-2.9-0.2-4.4-0.6c-1-0.6-2-0.7-3.1-0.6l-0.3,0L1103.8,385.8z"/>
	<path id="XMLID_805_" class="st153" d="M881.3,325.9c4.5-0.8,8.6-3,12.8-4.6c16.2-6.3,32.4-12.6,48.6-18.9
		c14.3-5.6,28.5-11.3,42.7-16.9c6-2.4,11.9-4.7,17.9-7.1c1-0.4,2-0.6,3-0.6c1.6,13,3.3,25.9,4.9,38.9c1.4,11.2,2.6,22.4,3.9,33.7
		c1.2,10,2.5,19.9,3.7,29.9c-0.2,0-0.4,0.1-0.6,0.1c-7.6-3.7-15.6-6.3-23.4-9.4c-28-11-56.1-21.9-84.2-32.9
		c-10-3.9-20-7.7-29.9-11.6C880.9,326.3,881.1,326.1,881.3,325.9z"/>
	<path id="XMLID_804_" class="st154" d="M1030.7,370.8c-0.9,1-0.6,2.1-0.3,3.2c4.9,20.3,9.7,40.5,14.6,60.8c1.4,5.7,3,11.4,3.8,17.3
		c-2.4-4.1-3.9-8.7-5.7-13.1c-7.8-18.6-15.4-37.2-23.1-55.8c-0.3-0.8-0.8-1.4-1.2-2.2c0-0.3,0-0.5-0.1-0.8c2.8-2.7,5.7-5.4,8.5-8.2
		c1-0.9,1.8-2,3.4-1.9c0.1,0.1,0.2,0.3,0.2,0.4C1030.7,370.7,1030.7,370.8,1030.7,370.8z"/>
	<path id="XMLID_803_" class="st155" d="M793.9,302.7c9.6,2,19,5,28.5,7.7c10.2,2.9,20.6,5.7,30.8,8.5c9.2,2.5,18.3,5.1,27.5,7.6
		c-0.8,9.5-1.6,19-2.4,28.5c-0.5,6.3-0.9,12.6-1.4,18.9c-0.8,9.9-1.6,19.8-2.4,29.7c-0.5,6.2-0.9,12.4-1.4,18.6
		c-0.8,10.3-1.6,20.6-2.4,30.9c-0.5,6.5-0.7,13-1.4,19.5c-0.5,5,0.1,10.2-1.8,15c-6.2-15.6-12.3-31.1-18.5-46.7
		c-4.9-12.2-9.8-24.3-14.7-36.5c-7.5-18.7-15.1-37.4-22.6-56c-5.2-12.9-10.4-25.9-15.5-38.8C795.5,307.3,794.1,305.2,793.9,302.7z"
		/>
	<path id="XMLID_802_" class="st156" d="M197.7,376.4c0.6-15.7,1.2-31.3,2-47c0.5-9.4,0.9-18.9,1.3-28.3c0.6-14.2,1.4-28.4,1.9-42.6
		c0.3-6.9,0.5-13.9,0.9-20.8l0.2-0.1c1-0.1,1.8,0.3,2.4,0.9c2.6,3.8,5.9,7.1,8.5,10.9c0.2,0.2,0.4,0.4,0.5,0.7
		c1.1,1.9,2.5,3.4,3.9,5c0.2,0.2,0.4,0.4,0.5,0.7c1.3,1.9,2.6,3.7,4.3,5.3c6.7,8.4,13.3,16.9,19.8,25.5c0.9,1.8,2.1,3.3,3.4,4.8
		c0.2,0.2,0.4,0.4,0.5,0.7c1.1,1.8,2.5,3.3,3.9,5c0.2,0.2,0.4,0.4,0.5,0.7c1.1,1.8,2.5,3.4,3.9,5c0.2,0.2,0.4,0.4,0.5,0.7
		c1.2,1.9,2.7,3.7,4.3,5.4c20.5,26.3,40.8,52.8,61.4,79c0.6,0.8,1.4,1.5,1.6,2.6c-0.2,0.2-0.4,0.4-0.7,0.6c-0.6,0-1.3,0-1.9,0
		c-4.6-1.3-9.4-1.3-14.1-1.9c-10.3-1.3-20.6-2.5-30.8-3.7c-8.1-0.9-16.3-1.7-24.4-2.7c-8.2-0.9-16.4-1.9-24.7-2.9
		c-8-0.9-16.1-1.8-24.1-2.7c-1.6-0.2-3.3-0.3-4.9-0.5c-0.2,0.2-0.4,0.2-0.6,0.1L197.7,376.4z"/>
	<path id="XMLID_801_" class="st157" d="M197.8,376.6c0.2,0,0.4,0,0.6-0.1c4.4,4.5,9.8,7.6,14.9,11.2c13.7,9.9,27.6,19.6,41.3,29.5
		c3.3,2.3,3.2,3.2-0.3,5.6c-15.8,10.8-31.6,21.5-47.4,32.3c-21.4,14.6-42.7,29.2-64.1,43.7c-1.2,0.8-2.4,2.6-4.3,1.3
		c2.8-5.9,5.4-11.9,8.3-17.8c7.8-16.1,15.7-32.1,23.4-48.2C179.4,415,188.6,395.8,197.8,376.6z"/>
	<path id="XMLID_800_" class="st158" d="M477.1,452.6c-0.2,0.2-0.5,0.4-0.7,0.6c-0.5,1.7-2,2.1-3.3,2.5c-18.2,6-36.3,12.5-54.5,18.6
		c-1.5,0.5-3,1-4.5,0.3c-0.2,0-0.5,0-0.7,0c-1.6,0.3-2.8-0.5-4-1.4c-8.8-6.7-17.7-13.1-26.5-19.7c-1.3-1-2.7-1.9-2.7-3.9
		c2.9-4,7-6.7,10.6-10.1c4.9-4.7,10.1-8.9,15.1-13.4c9.9-8.8,19.9-17.6,29.6-26.6c3.5-3.2,7.5-5.9,10.3-9.9c0.2-0.3,0.5-0.4,0.8-0.3
		c1.4,0.4,1.8,1.6,2.3,2.7c9.4,18.7,18.2,37.8,27.6,56.5C477.2,449.8,478.1,451.1,477.1,452.6z"/>
	<path id="XMLID_799_" class="st159" d="M414,474.6c8.6-3,17.1-6,25.7-8.9c12.2-4.2,24.5-8.3,36.7-12.5c1.1,0.6,1.1,1.6,1.4,2.6
		c2.9,11,5.8,22.1,8.6,33.1c5.9,22.9,11.7,45.8,17.5,68.7c-7-5.7-13.4-12-19.9-18.2c-8.4-8-17.1-15.6-25.7-23.4
		c-5.1-4.7-10.3-9.3-15.4-14.1c-9-8.4-18.1-16.8-27.1-25.2C415.1,476.1,414.6,475.3,414,474.6z"/>
	<path id="XMLID_798_" class="st160" d="M380.2,449.6c3.9,3.9,8.6,6.8,12.9,10.1c6.7,5.1,13.4,10,20.2,14.9
		c-10.6,9.8-21.1,19.7-31.7,29.5c-16,14.8-32,29.6-48,44.3c-0.5,0.4-1,0.8-1.5,1.1c2-5.1,5.8-9,8.9-13.4
		c11.1-15.7,22.3-31.2,33.5-46.7c2.8-3.9,5.6-7.7,8.3-11.6c0.8-1.1,2.2-2.1,1.2-3.8c1.3-2,0-3.8-0.4-5.6c-1.2-6.3-2.7-12.5-4-18.8
		C379.8,449.6,380,449.6,380.2,449.6z"/>
	<path id="XMLID_797_" class="st161" d="M446.4,389.6c-0.2,0-0.4,0-0.6,0c-9.2-3.6-18.6-6.4-27.9-9.6c-16.2-5.5-32.4-11-48.7-16.5
		c-1.1-0.4-2.2-0.6-3.3-0.9c-0.2-0.3-0.4-0.5-0.7-0.8c-0.2-0.9,0.3-1.5,1-1.9c8.9-5.4,17.5-11.2,26.3-16.7
		c28.9-18.3,57.8-36.8,86.7-55.2c6.8-4.3,13.5-8.6,20.3-12.9c1.3-0.8,2.7-2.2,4.5-1.2c0.8,1.7-0.1,3.1-0.8,4.4
		c-18,36-36,72.1-54,108.1C448.7,387.8,448,389.1,446.4,389.6z"/>
	<path id="XMLID_796_" class="st162" d="M366.4,360.8c-0.4,0.4-0.7,0.7-1.1,1.1c-0.2,0.1-0.4,0.2-0.6,0.3c-2.6-0.1-4.2-2.2-6-3.7
		c-19.6-15.3-39.2-30.4-58.8-45.7c-24.3-18.8-48.6-37.7-72.9-56.5c-4.6-3.6-9.2-7.1-13.9-10.5c-2.7-2-4.9-4.5-7.2-6.8
		c-0.6-0.5-1.2-0.9-1.8-1.4c0-0.2,0-0.3,0.1-0.5c44.4,0,88.9,0.4,133.3-0.2c47.9-0.6,95.7-0.1,143.6-0.4c0.7,0,1.5,0,2.2-0.1
		c0.1,0.1,0.2,0.2,0.3,0.3c0.1,1.7-1.2,2.6-2.2,3.6c-15.1,15.6-29.8,31.6-44.7,47.4c-13.1,13.8-26.1,27.7-39.1,41.6
		c-7.8,8.3-15.8,16.5-23.4,25.1C371.8,357,369,358.8,366.4,360.8z"/>
	<path id="XMLID_795_" class="st163" d="M243.3,287.1c-6.9-8.3-13.5-16.9-19.9-25.6c-1-2.2-2.7-3.9-4.4-5.7l0,0
		c-1.1-2.2-2.7-3.9-4.4-5.6l0,0c-0.4-0.7-0.7-1.4,0.1-1.9c0.8-0.5,1.6-0.1,2.3,0.4c3,2,5.8,4.4,8.6,6.6
		c10.8,8.4,21.6,16.7,32.5,25.1c10.8,8.4,21.7,16.7,32.5,25.1c11.4,8.8,22.8,17.6,34.2,26.5c9.2,7.1,18.4,14.2,27.5,21.4
		c2.9,2.3,5.8,4.7,8.9,6.8c1,0.7,2.4,1.5,1.7,3.3c-12.9,8.9-25.8,17.8-38.8,26.8c-2.5-0.4-3.3-2.8-4.5-4.5
		c-19.6-25.1-39.1-50.3-58.7-75.4c-0.3-0.4-0.4-0.9-0.6-1.4c-1-2.2-2.7-3.9-4.4-5.7l0,0c-1.1-2.2-2.7-3.9-4.4-5.6l0,0
		c-1.1-2.2-2.7-3.9-4.4-5.6l0,0C246.1,290.3,244.9,288.5,243.3,287.1z"/>
	<path id="XMLID_794_" class="st163" d="M362.8,363.5c-1.8-3.1-5.1-4.6-7.8-6.6c-11.6-9.1-23.3-18-34.8-27.1
		c-9.3-7.4-18.9-14.5-28.3-21.8c-13.3-10.2-26.6-20.4-39.8-30.7c-11-8.6-22-17.3-33-25.9c-1.1-0.8-2.2-1.6-3.4-2.2
		c-1.3-0.7-0.9,0.5-1.1,1.1c-3.3-3.4-6.2-7.2-8.8-11.3c9.3,7.1,18.7,14.2,27.9,21.3c9.8,7.5,19.5,15.2,29.2,22.8
		c17.5,13.6,35.1,27.2,52.6,40.8c13.9,10.8,27.9,21.6,41.9,32.4c2.5,1.9,4.8,3.9,7.2,5.9C364.2,362.9,363.5,363.2,362.8,363.5z"/>
	<path id="XMLID_793_" class="st164" d="M1030.7,370.8c0-0.2,0-0.4,0-0.6c5.5-2.3,11.1-4.4,16.8-6.2c5.6-1.8,11.1-3.9,16.6-6
		c3.9-1.4,7.9-2.5,11.7-4c5.9-2.4,12.1-4.2,18.2-6.2c1.2-0.4,2.4-0.9,3.3,0.5c2.1,11.7,4.1,23.4,6.2,35.2c0.1,0.6,0.1,1.2,0.2,1.8
		c-14.8-2.9-29.6-5.8-44.4-8.8C1049.7,374.6,1040.2,372.7,1030.7,370.8z"/>
	<path id="XMLID_792_" class="st165" d="M505.2,273.8c20.1,5.6,40.3,11.1,60.4,16.7c34.5,9.6,69.1,19.1,103.6,28.7
		c14.2,3.9,28.4,7.8,42.7,11.7l0,0c0.2,0.1,0.2,0.2,0.2,0.3c-0.1,0.1-0.1,0.1-0.2,0.1c-0.3,0.3-0.6,0.5-1,0.8
		c-3.5,4.1-7.9,7-12.1,10.2c-34.2,25.8-68.4,51.8-102.6,77.6c-17.4,13.2-34.9,26.4-52.3,39.6c-1.2,0.9-2.3,2.1-4,2.2
		c-0.2,0-0.3-0.1-0.5-0.1c-0.3-0.2-0.5-0.4-0.7-0.8c-2.1-6.6-2.9-13.4-4.1-20.1c-4.9-25.4-9.5-50.9-14.2-76.3
		c-5.3-28.2-10.5-56.4-15.7-84.6c-0.3-1.7-0.8-3.5,0-5.2C504.7,274.3,504.9,274,505.2,273.8z"/>
	<path id="XMLID_791_" class="st166" d="M540.1,461.5c4.4-4.4,9.7-7.8,14.6-11.5c24.5-18.7,49.1-37.2,73.7-55.8
		c16.7-12.6,33.4-25.2,50.2-37.9c9.8-7.4,19.7-14.9,29.5-22.4c0.9-0.7,1.8-1.4,2.9-1.7c-4.8,8.9-9.5,17.7-14.4,26.6
		c-19,34.6-38,69.2-57,103.7c-8.8,16.1-17.7,32.2-26.6,48.3c-0.6,1.2-1.1,2.4-1.7,3.7l-0.2,0c0,0-0.2,0-0.2,0c0,0-0.3-0.1-0.3-0.1
		c-0.3-0.2-0.5-0.3-0.8-0.4c-10.4-6.6-20-14.2-29.9-21.4c-12.5-9-24.9-18.1-37.2-27.3C541.5,464.3,539.7,463.6,540.1,461.5z"/>
	<path id="XMLID_790_" class="st167" d="M711.9,331.4c0-0.2,0-0.3,0-0.5c17.9-6.3,35.8-12.6,53.6-18.9c0.3-0.1,0.5-0.3,0.8-0.5
		c2.2-1,4.5-1.8,6.9-2.5c0.6-0.2,1.2-0.4,1.9-0.6c3.4-1.6,7.1-2.6,10.6-3.7l0,0c1.7-1,3.7-1.4,5.6-1.9c0.6-0.2,1.3-0.4,1.9-0.6
		c0.2,0.2,0.4,0.4,0.6,0.6c-2.4,2.6-2.2,6.2-2.9,9.3c-8.7,39.5-17.2,79.1-25.7,118.6c-4.9,22.5-9.7,45-14.5,67.5
		c-0.3,1.3-0.4,2.7-1.2,3.8c-2.1-4.7-2.5-9.8-3.6-14.7c-4.3-19.4-8.4-38.9-12.6-58.4c-5.4-25.2-10.8-50.5-16.3-75.7
		C715.3,345.9,714.1,338.5,711.9,331.4z"/>
	<path id="XMLID_789_" class="st168" d="M595.2,204.7c-6.1,5.4-12.9,10-19.5,14.9c-23,17.4-46,34.7-69,52c-0.7,0.6-1.6,1.1-1.5,2.2
		c-0.1,0.1-0.2,0.2-0.3,0.3c-0.3,0-0.6-0.1-0.8-0.3c-1.4-1-2.2-2.5-3-4c-5.4-9.6-11-19.1-16.5-28.7c-0.8-1.4-1.6-2.7-1.4-4.4
		c0-0.1-0.1-0.2-0.2-0.3c0.1-0.2,0.1-0.3,0.1-0.5c0.6-1.1,1.4-2.1,1.9-3.2c7.9-15.7,15.7-31.5,23.6-47.1c1.8-3.5,3.2-7,2.8-11
		c0,4.3,3,5.4,6.4,6.4c12.7,3.8,25.3,7.7,38,11.6C569.1,196.7,582.2,200.7,595.2,204.7z"/>
	<path id="XMLID_788_" class="st169" d="M610.7,513.8c0.1,0.1,0.1,0.3,0,0.4c-14.5,6.1-29,12.1-43.5,18.2
		c-10.1,4.2-20.3,8.3-30.4,12.5c-9.8,4-19.5,8.1-29.2,12.1c-0.8,0.3-1.6,0.4-2.4,0.6c0-0.2,0-0.4,0.1-0.6
		c4.2-7.1,10.3-12.8,15.7-18.9c8.9-10.1,17.6-20.2,26.6-30.2c1.9-2.2,3.8-4.4,6.1-6.3c1-1,2.3-1.2,3.7-1.4c4.3,0.3,8.3,1.7,12.4,2.7
		c10.9,2.5,21.7,5.1,32.6,7.6C605.3,511.3,608,512.3,610.7,513.8z"/>
	<path id="XMLID_787_" class="st170" d="M504.5,274c0.2,0,0.3,0.1,0.5,0.1c2.1,11.2,4.1,22.5,6.2,33.7c4.2,22.8,8.4,45.6,12.7,68.3
		c5.1,27.7,10.3,55.3,15.5,83c0.1,0.7,0.1,1.4,0.2,2.2c-1.2,1.6-2.9,1.4-4.5,1.1c-17.1-2.6-34.3-4.8-51.4-7.3
		c-1.6-0.2-3.1-0.4-4-1.9c-0.8-0.2-1.6-0.5-2.4-0.7c-0.1-0.4-0.2-0.8-0.4-1.2c-10.1-20.6-20.2-41.2-30.3-61.8
		c18.6-37.3,37.3-74.6,55.9-111.9c0.6-1.2,1.1-2.5,1.6-3.7C504.2,273.7,504.4,273.8,504.5,274z"/>
	<path id="XMLID_786_" class="st171" d="M479.5,453.3c12.7,1.8,25.4,3.6,38.2,5.3c7.3,1,14.5,2.4,21.9,2.8l0,0.1
		c0.3,0.4,0.5,0.9,0.5,1.4c-2.7,10.5-6.2,20.9-9.5,31.2c-0.3,0.9-0.6,1.8-0.9,2.7c-0.9,2.9-0.7,3.3,2.4,3.3
		c6.1,0.1,12.3-0.1,18.4,0.1c1.5,0,3.8-0.5,3.5,2.4c-4.3,4.8-8.5,9.6-12.8,14.4c-7.3,8.2-14.4,16.6-21.8,24.7
		c-4.7,5.1-8.9,10.7-14.1,15.4c3.3-8.7,6.5-17.5,9.9-26.2c3.3-8.7,6.7-17.5,10.1-26.1c1-2.4,0.5-3.9-1.3-5.7
		c-14.5-14.3-28.9-28.8-43.3-43.2C480,455.2,478.1,454.9,479.5,453.3z"/>
	<path id="XMLID_785_" class="st172" d="M1107.5,386.4c1.5,0.2,2.9,0.4,4.4,0.6c29.6,6.5,59.3,13,88.9,19.5c0.4,0.1,0.7,0.4,1.1,0.5
		c-2.1,1.5-4.5,0.3-6.3-0.3c-6.5-2.2-13.5-2.4-19.9-4.3c-9.6-2.9-19.5-4.5-29.2-6.6c-8.1-1.7-16.1-4.3-24.5-5.2
		C1117,390.1,1112,388.9,1107.5,386.4z"/>
	<path id="XMLID_784_" class="st120" d="M785.7,304.6c-3.3,1.8-6.9,3.1-10.6,3.7C778.1,305.7,781.9,305.1,785.7,304.6z"/>
	<path id="XMLID_783_" class="st120" d="M773.2,309c-2,1.6-4.4,2.1-6.9,2.5C768.4,309.9,770.5,308.7,773.2,309z"/>
	<path id="XMLID_782_" class="st120" d="M791.3,302.7c-1.7,1.1-3.6,1.7-5.6,1.9C787.2,302.8,789.2,302.5,791.3,302.7z"/>
	<path id="XMLID_781_" class="st163" d="M247.1,292.1c2.4,1.1,4,2.9,4.4,5.6C249.6,296.2,248.1,294.3,247.1,292.1z"/>
	<path id="XMLID_780_" class="st163" d="M251.4,297.7c2.4,1.1,4,2.9,4.4,5.6C254,301.8,252.5,299.9,251.4,297.7z"/>
	<path id="XMLID_779_" class="st163" d="M255.8,303.4c2.4,1.1,4,2.9,4.4,5.7C258.4,307.4,256.9,305.6,255.8,303.4z"/>
	<path id="XMLID_778_" class="st163" d="M214.6,250.2c2.4,1.1,4,2.9,4.4,5.6C217.1,254.3,215.6,252.4,214.6,250.2z"/>
	<path id="XMLID_777_" class="st163" d="M219,255.9c2.4,1.1,4,2.9,4.4,5.7C221.5,259.9,220,258.1,219,255.9z"/>
	<path id="XMLID_776_" class="st163" d="M243.3,287.1c2.4,0.8,3.5,2.6,3.8,5C245.4,290.8,244.2,289.1,243.3,287.1z"/>
	<path id="XMLID_775_" class="st173" d="M504.5,274c-0.2,0-0.4,0-0.6,0c-9.8,6.2-19.7,12.4-29.5,18.6
		c-34.7,22.1-69.4,44.2-104.2,66.3c-1.2,0.8-2.3,1.8-3.9,1.9c8.7-9.2,17.4-18.4,26.1-27.7c14.1-15,28.1-30.1,42.2-45
		c8.7-9.2,17.4-18.4,26.1-27.6c7.5-7.9,14.7-16.1,22.6-23.7c7,12,13.9,24,20.9,36C504.4,273.1,504.4,273.6,504.5,274z"/>
	<path id="XMLID_774_" class="st174" d="M539.5,462.7c0-0.4,0-0.8,0-1.2c0.2,0,0.4,0,0.6,0c4.8,4.4,10.4,7.9,15.6,11.8
		c17.8,13.1,35.7,26,53.5,39.1c0.6,0.4,1,1,1.5,1.5c-13.6-3.2-27.3-6.4-40.9-9.6c-4.2-1-8.5-2-12.7-3c-2,0-3.1-1.1-3.8-2.9
		c-4.3-10.5-8.7-21-13.1-31.5C539.6,465.5,539.5,464.1,539.5,462.7z"/>
	<path id="XMLID_773_" class="st175" d="M539.5,462.7c3.5,8.4,7.1,16.8,10.6,25.2c1.6,3.8,3.1,7.7,4.6,11.5c0.4,1.1,1.5,1.4,2.3,2
		c-1.3-0.1-2.1,0.8-3.2,1.3c-0.6-1.7-2-1.1-3.2-1.1c-7.1,0-14.1,0-21.2,0c-1.9,0-2.7-0.4-2-2.5c3.8-11.6,7.5-23.3,11.3-34.9
		C539,463.5,539.3,463.1,539.5,462.7z"/>
</g>
</svg>
