<?xml version="1.0" encoding="utf-8"?>
<!-- Generator: Adobe Illustrator 21.0.0, SVG Export Plug-In . SVG Version: 6.00 Build 0)  -->
<svg version="1.1" id="Layer_1" xmlns="http://www.w3.org/2000/svg" xmlns:xlink="http://www.w3.org/1999/xlink" x="0px" y="0px"
	 viewBox="0 0 1280 650" style="enable-background:new 0 0 1280 650;" xml:space="preserve">
<style type="text/css">
	.st0{opacity:0.1;}
	.st1{fill:#FFFFFF;}
</style>
<g id="XMLID_695_" class="st0">
	<path id="XMLID_729_" class="st1" d="M935.2,303.4c0,27.5-0.7,55,0.2,82.5c0.8,22.5-14.8,33.2-36.7,37.3c-16.3,3-32.8,2.7-49.1-0.2
		c-7.7-1.4-14.7-4.3-21-8.2c-12.8-8-14.7-19.4-14.1-31.5c0.1-1.5,0.9-2,2.6-2c8.2,0,16.3,0,24.5,0c2.4,0,2.8,1,3,2.7
		c1.4,11.9,6.8,16.7,21.3,18.5c9.6,1.1,19.1,0.8,28.1-2.9c7-2.9,10.7-7.5,10.7-14c0.1-10.5,0.2-21.1,0-31.6
		c-0.1-8.5-4.3-13-14.4-15.9c-13.9-3.9-27.9-7.8-41.8-11.6c-12.6-3.5-23.7-8.6-29.8-19c-2.7-4.7-4.2-9.6-4.2-14.8
		c0-25.9,0.1-51.8-0.1-77.7c0-3.2,0.8-4.4,5-4.2c6.7,0.3,13.5,0.3,20.2,0c4-0.2,5.1,0.9,5.1,4.2c-0.2,23.6-0.1,47.1-0.1,70.7
		c0,10.6,3.7,15.2,15.7,18.9c12.3,3.7,24.7,7.3,37.1,10.7c7.3,2.1,7.4,1.9,7.4-4.2c0-31.5,0-62.9,0-94.4c0-6.6-0.7-5.7,7.2-5.8
		c5.9,0,11.7,0.2,17.6-0.1c4.4-0.2,5.7,0.9,5.7,4.6C935.2,244.6,935.2,274,935.2,303.4z"/>
	<path id="XMLID_728_" class="st1" d="M1149.1,268c0,6.6-0.1,13.2,0,19.8c0.2,7,3.6,12.5,12,15.1c14.2,4.2,28.3,8.5,42.7,12.3
		c12.1,3.3,23.2,7.4,30,16.9c3.7,5.2,5.9,10.6,5.9,16.6c0,12.7-0.4,25.5,0.1,38.2c0.7,19.7-11.6,29.8-30.9,34.8
		c-19.4,4.9-39.4,4.8-58.8,0.1c-22.4-5.4-32.2-17.7-31.1-36.9c0.1-2.2,0.7-3.1,3.6-3.1c7.6,0.1,15.3,0.1,22.9,0
		c2.6,0,3.6,0.5,3.8,2.9c0.5,9.1,5.1,14.1,15.7,16.5c11.2,2.5,22.5,2.4,33.3-1.8c7.3-2.8,11.1-7.6,11-14.3c0-10.4,0.1-20.8,0-31.2
		c-0.1-8.7-4-13.2-14.1-16.1c-14.6-4.2-29.2-8.2-43.8-12.3c-15.3-4.3-26.9-11.7-31.1-25.3c-0.9-2.9-1.1-5.8-1.1-8.7
		c0-15.2,0-30.4,0-45.7c0-17.6,7.8-28,28-33.7c22.1-6.3,44.8-6.3,66.7,0.7c19.7,6.3,27.8,18.5,26,35.8c-0.2,1.9-0.9,2.6-3.1,2.5
		c-8-0.1-16-0.1-24,0c-2.4,0-3.6-0.6-3.5-2.8c0.6-9.7-7.5-15.1-18.3-17c-10-1.7-20.1-2-29.8,1.5c-7.9,2.9-11.9,8.1-11.9,15.2
		C1149.1,254.8,1149.1,261.4,1149.1,268z"/>
	<path id="XMLID_725_" class="st1" d="M1087.2,367c-5.7,0-11.4,0-17,0c-9.2,0-9.2,0-10.4,7.6c-1.6,10.5-7.9,16.9-19.3,19.2
		c-5.2,1-10.5,1.2-15.9,0.6c-13.1-1.4-21.6-7.6-23.4-18.4c-1.8-11.2-1.9-22.5-0.1-33.7c2.1-12.7,12.2-19.5,27.6-19.5
		c6.4,0,12.8-0.1,19.2,0c5.7,0.1,10.8-1,15.9-3c13.9-5.4,20.8-15.5,24.4-26.8c4.8-15.3,3.6-31.1,1.4-46.7
		c-2.8-19.5-18.6-32.7-42-36.3c-11.3-1.7-22.6-1.7-33.9,0c-21.8,3.3-37.5,15.8-41.8,33.1c-1.2,5-1.8,10.1-1.8,15.3
		c0.1,19.8,0,39.5,0,59.3c0,20.6-0.1,41.3,0,61.9c0.2,21.9,16.3,38.8,42,43.9c13.7,2.7,27.6,2.5,41.1-0.7
		c11.9-2.8,21.8-8.3,28.6-17.2c8.6-11.2,9.5-23.6,9-36.4C1090.7,367,1089.1,367,1087.2,367z M1000.9,258.5c1.2-9.5,8.7-15.9,20-18.2
		c5.4-1.1,10.9-1.2,16.4-0.6c12.6,1.3,21.1,8.3,22.5,18.6c1,7.6,1.8,15.2-1.4,22.6c-3.8,8.9-10.6,12.8-22.1,12.9
		c-4.4,0-8.9,0.1-13.3,0c-8.7-0.3-16.6,1-23,8.4C1000.7,286.6,999.1,272.5,1000.9,258.5z"/>
	<path id="XMLID_722_" class="st1" d="M636.1,417.1c-12.4-29.4-24.9-58.8-37.5-88.2c-1.5-3.5-1.2-5.4,3.3-7.1
		c15-5.9,21.7-16.3,21.8-29.7c0.2-15.7-0.3-31.3,0.1-47c0.5-18.2-11.9-28.4-30.8-33.6c-17.7-4.8-36.1-4.6-54.1-1.2
		c-23.2,4.5-36.6,15.8-35.9,36.8c0.9,27.5,0.2,55,0.2,82.5c0,29.4,0.1,58.8-0.1,88.2c0,3.8,1.1,5.3,6,5.1c5.8-0.3,11.7-0.3,17.6,0
		c5.1,0.3,6.7-1.1,6.6-5.4c-0.2-21.1,0-42.1-0.1-63.2c0-7.4,3.8-12.6,12.1-15.4c5.4-1.8,11.1-3.1,16.4-5c4.7-1.7,6.6-0.9,8.3,3.2
		c11.2,27.1,22.8,54.1,34.1,81.3c1.5,3.6,3.7,4.8,8.1,4.6c6.2-0.3,12.4-0.1,18.6-0.1C638.4,423,638.6,422.9,636.1,417.1z
		 M593.8,288.2c-0.2,7-4,12.6-12.7,15.2c-14.4,4.2-28.7,8.3-43.1,12.6c-3.6,1.1-4.8,0.4-4.8-2.8c0.1-10.7,0-21.3,0-32
		c0-9.8,0-19.6,0-29.4c0-12.5,5.6-18.6,20.5-20.6c9.6-1.3,19.3-1.2,28.6,2.5c7.8,3.1,11.4,8.2,11.5,15
		C594.1,261.9,594.2,275.1,593.8,288.2z"/>
	<path id="XMLID_719_" class="st1" d="M780.4,317c0-23.7,0-47.4,0-71.1c0-17.3-10-28.9-29.8-34.3c-18.7-5-37.8-5-56.7-1.2
		c-23,4.7-34.7,16.5-34.8,34.3c-0.2,47.8-0.2,95.7,0.1,143.5c0,7.4,1.7,14.8,7.8,21c7.7,7.8,17.9,11.8,29.4,13.9
		c14.2,2.6,28.6,2.6,42.8,0.7c13.2-1.8,25.2-5.9,33.8-15c5.8-6.1,7.3-13.3,7.4-20.6C780.5,364.4,780.4,340.7,780.4,317z
		 M731.8,401.4c-9.3,1.8-18.6,1.9-27.8-0.6c-9.9-2.8-14.2-7.7-14.2-16.4c0-22.5,0-45,0-67.6c0-22.4,0-44.8,0-67.1
		c0-11.7,8.4-18.7,22.7-19c7.1-0.1,14.2-0.6,21.2,1.1c10.9,2.6,15.9,7.8,16,17.2c0.1,44.5-0.2,88.9,0.2,133.4
		C749.9,394.3,742.9,399.3,731.8,401.4z"/>
	<g id="XMLID_714_">
		<g id="XMLID_716_">
			<path id="XMLID_718_" class="st1" d="M186,326.5c13.1-4,26.2-7.7,39.4-11.4c8.4-2.4,12.4-7.6,12.5-14.5c0.3-12.6,0.3-25.2,0-37.7
				c-0.1-6.3-3.5-11-10.7-13.9c-8.9-3.6-18.3-3.7-27.5-2.4c-13.9,2-19,7.6-19,19.3c0,9.3,0,18.5,0,27.8c0,9.8,0.1,19.6-0.1,29.4
				C180.5,326.7,181.4,327.9,186,326.5z"/>
			<path id="XMLID_717_" class="st1" d="M325.8,301.3c0-5.3-0.9-10.5-2-15.7c-2.2-10-5.6-19.6-10.3-28.7c-2.3-4.5-5-8.9-7.9-13.1
				c-4-5.7-8.5-11-13.4-16c-2.1-2.1-4.3-4.1-6.6-6.1c-7.9-6.6-16.4-12.2-25.8-16.6c-7.4-3.5-15.1-6.1-23.1-8
				c-6.3-1.5-12.7-2.4-19.3-2.4c-0.6,0-1.2,0-1.8,0c-0.5-0.1-1.1,0.1-1.6-0.1c-3.2,0-6.4,0-9.6,0c-0.5,0.2-1.1,0.1-1.6,0.1
				c-0.6,0-1.2,0-1.8,0c-1,0-2,0.1-2.9,0.1c-5.3,0-10.5,1-15.7,2.1c-10.7,2.4-20.9,6.3-30.5,11.6c-8.3,4.6-15.9,10.1-22.8,16.5
				c-4.8,4.5-9.2,9.3-13.2,14.5c-4.7,6.1-8.7,12.6-12.1,19.5c-3.3,6.6-5.8,13.5-7.8,20.7c-1.7,6.3-2.9,12.8-3.5,19.3
				c0.1,0.5,0.2,0.9,0.1,1.4c-0.4,1.4-0.5,2.9-0.5,4.3c-0.1,8-0.2,16,1,24c0.9,6.3,2.3,12.5,4.2,18.5c2.5,8,5.8,15.6,10,22.8
				c4.6,8,10.1,15.4,16.4,22.1c3.4,3.7,7.2,7.1,11.1,10.3c5.5,4.4,11.3,8.4,17.5,11.8c0.1-25.1,0.1-50.1,0.1-75.2
				c0-25.7,0.7-51.5-0.2-77.2c-0.7-20.1,12-30.4,33.4-34.7c19.2-3.9,38.6-3.7,57.3,2.5c15.8,5.2,23.5,14.9,23.5,28.9
				c0,15.1-0.5,30.2,0.2,45.2c0.6,13.1-9.9,25.8-25.3,30.4c-14.8,4.5-29.8,8.6-44.7,12.8c-12.5,3.6-15.9,7.5-15.9,18.3
				c0,17.8-0.1,41.3,0.1,59.9c6,1.4,12,2.4,18.2,2.9c0.6,0,1.2,0.1,1.7,0.1c7.3,0.5,16.2,0.1,20.1-0.1c3.7-0.3,7.3-0.8,10.9-1.5
				c9.7-1.8,19-4.8,27.9-8.9c6-2.8,11.6-6.1,17.1-9.8c4.5-3.1,8.7-6.5,12.7-10.2c3.7-3.5,7.3-7.2,10.5-11.1
				c5.3-6.4,9.8-13.2,13.7-20.6c3.5-6.7,6.3-13.8,8.4-21.1c2.6-8.9,4.2-17.9,4-27.1c0-0.4,0-0.9,0-1.3c0-0.7,0-1.4,0-2.2
				c0-2,0-4,0-6c0-0.7,0-1.4,0-2.2c0-0.4,0-0.9,0-1.3C325.9,303.6,325.8,302.4,325.8,301.3z"/>
		</g>
		<path id="XMLID_715_" class="st1" d="M198.2,436.3c-7.7-0.6-15.3-1.9-22.8-3.9c-8.2-2.2-16.2-5.3-23.8-9.2
			c-7.8-4-15.2-8.8-22-14.4c-4.2-3.4-8.2-7-11.9-11c-6.7-7.2-12.6-15.1-17.5-23.6c-4.4-7.8-8-15.9-10.7-24.4
			c-2-6.5-3.5-13.1-4.5-19.8c-1-7-1.2-14-1.1-20.9c-5.5,14.9-11,29.8-16.6,44.7c-8.4,22.6-16.7,45.1-25.1,67.7
			c-0.9,2.3-1.2,4.5-1.8,6.8c-0.3,1.7-0.4,3.6-0.4,5.3c0,0.2-0.1,0.8,0,1.2c0.1,1.9,0.3,3.7,1,5.5c1.5,3.8,3.7,7.1,6.8,9.7
			c3.8,3.3,8.1,5.4,13.3,5.4c0.4,0,0.8,0,1.2,0c0.8,0,1.6,0,2.5,0c0.5,0,1,0,1.5,0c1.9-0.1,3.9-0.1,5.8-0.4
			c6.6-0.9,13.2-1.9,19.8-2.9c5.6-0.8,11.1-1.6,16.7-2.4c6.2-0.9,12.4-1.8,18.7-2.7c5.6-0.8,11.2-1.7,16.8-2.5
			c6.2-0.9,12.4-1.8,18.7-2.7c5.6-0.8,11.2-1.7,16.8-2.5c6.2-0.9,12.4-1.8,18.7-2.7c0.3,0,0.6-0.1,0.9-0.1
			C198.8,436.3,198.5,436.3,198.2,436.3z"/>
	</g>
	<path id="XMLID_711_" class="st1" d="M471.7,246.3c0-14.8-8.2-25.1-24.8-30.6c-19.8-6.5-40.3-6.7-60.6-2.6
		c-22.7,4.6-36.1,15.5-35.4,36.7c0.9,27.2,0.2,54.4,0.2,81.6c0,29.7,0.1,59.4-0.1,89.1c0,3.5,1.1,5,5.7,4.8c6-0.3,12.1-0.3,18.1,0
		c4.9,0.2,6.4-1.1,6.4-5.2c-0.2-20.3-0.1-40.7-0.1-61c0-11.5,3.6-15.6,16.8-19.4c15.8-4.5,31.6-8.9,47.2-13.6
		c16.3-4.9,27.4-18.3,26.7-32.2C471.2,278.2,471.7,262.3,471.7,246.3z M441.7,290.8c-0.2,7.3-4.4,12.8-13.3,15.3
		c-13.9,3.9-27.8,7.9-41.6,12.1c-4.8,1.5-5.8,0.2-5.7-3.6c0.2-10.4,0.1-20.8,0.1-31.1c0-9.8,0-19.6,0-29.4
		c0-12.3,5.5-18.3,20.1-20.4c9.8-1.4,19.7-1.3,29.1,2.5c7.6,3,11.2,8.1,11.3,14.7C441.9,264.2,442,277.5,441.7,290.8z"/>
</g>
</svg>
