<?xml version="1.0" encoding="utf-8"?>
<!-- Generator: Adobe Illustrator 21.0.0, SVG Export Plug-In . SVG Version: 6.00 Build 0)  -->
<svg version="1.1" id="Capa_1" xmlns="http://www.w3.org/2000/svg" xmlns:xlink="http://www.w3.org/1999/xlink" x="0px" y="0px"
	 viewBox="0 0 512 512" style="enable-background:new 0 0 512 512;" xml:space="preserve">
<style type="text/css">
	.st0{fill:#FF0000;}
</style>
<g>
	<path class="st0" d="M395.3,274c-9.9,0-18-8.1-18-18c0-5.5-4.5-10-10-10s-10,4.5-10,10c0,21,17.1,38,38,38s38-17.1,38-38
		s-17.1-38-38-38c-5.5,0-10,4.5-10,10s4.5,10,10,10c9.9,0,18,8.1,18,18C413.4,265.9,405.3,274,395.3,274z"/>
	<path class="st0" d="M0.8,125.9c1.7,6.1,7.3,10.6,13.9,10.6c6.3,0,11.6-4,13.6-9.6v-7c0-7,5.8-12.8,12.8-12.8h161.5
		c6.1-1.7,10.6-7.3,10.6-13.9c0-8-6.5-14.4-14.4-14.4h-0.1H41.1C18.5,78.8,0,97.3,0,119.9L0.8,125.9z"/>
	<path class="st0" d="M502.7,225.9l-87.6-119.5c-11.5-15.7-34.9-27.6-54.4-27.6H255.9c-8,0-14.4,6.5-14.4,14.4
		c0,6.7,4.5,12.2,10.6,13.9h108.6c10.4,0,25.4,7.7,31.6,16l87.6,119.5c5,7,5,19.8-0.1,26.9L392.2,389c-6.1,8.4-21.2,16-31.6,16H41.1
		c-7,0-12.8-5.8-12.8-12.8V176.7c0-8-4.5-13.6-13.1-13.6C5.6,163,0,168.5,0,177v215c0,22.7,18.5,41.1,41.1,41.1h319.6
		c19.5,0,42.9-11.9,54.4-27.6L502.7,286C515.1,269.3,515.1,242.8,502.7,225.9z"/>
</g>
</svg>
